<svg width="99" height="52" viewBox="0 0 99 52" fill="none" xmlns="http://www.w3.org/2000/svg">
<rect width="97.76" height="52" transform="translate(0.76001)" fill="white"/>
<path d="M56.7724 23.1668L55.9401 22.6124C55.7619 22.88 55.7232 23.2169 55.8361 23.5179L56.7724 23.1668ZM54.1698 25.7704L54.5209 24.8341C54.2198 24.7211 53.8827 24.76 53.6151 24.9384L54.1698 25.7704ZM58.3344 27.3321L57.9833 28.2685C58.3505 28.4061 58.7642 28.3165 59.0415 28.0392C59.3188 27.7619 59.4084 27.3482 59.2707 26.981L58.3344 27.3321ZM57.3323 17.9994C57.3323 19.7071 56.8197 21.292 55.9401 22.6124L57.6047 23.7212C58.6962 22.0826 59.3323 20.1138 59.3323 17.9994H57.3323ZM48.9994 9.6665C53.6015 9.6665 57.3323 13.3973 57.3323 17.9994H59.3323C59.3323 12.2927 54.7061 7.6665 48.9994 7.6665V9.6665ZM40.6665 17.9994C40.6665 13.3973 44.3973 9.6665 48.9994 9.6665V7.6665C43.2927 7.6665 38.6665 12.2927 38.6665 17.9994H40.6665ZM48.9994 26.3323C44.3973 26.3323 40.6665 22.6015 40.6665 17.9994H38.6665C38.6665 23.7061 43.2927 28.3323 48.9994 28.3323V26.3323ZM53.6151 24.9384C52.2942 25.819 50.7082 26.3323 48.9994 26.3323V28.3323C51.1152 28.3323 53.0853 27.6953 54.7245 26.6024L53.6151 24.9384ZM53.8187 26.7067L57.9833 28.2685L58.6855 26.3958L54.5209 24.8341L53.8187 26.7067ZM59.2707 26.981L57.7087 22.8157L55.8361 23.5179L57.3981 27.6832L59.2707 26.981Z" fill="#111111"/>
<ellipse cx="44.3332" cy="18.0002" rx="1.16667" ry="1.16667" fill="#111111"/>
<circle cx="49.0002" cy="18.0002" r="1.16667" fill="#111111"/>
<circle cx="53.6667" cy="18.0002" r="1.16667" fill="#111111"/>
<path d="M43.0704 38.2529C43.0704 39.7783 43.8545 41.3467 45.1651 42.0449L44.6709 42.6787C43.7203 42.1577 43.0328 41.1802 42.6836 40.0254C42.3399 41.25 41.6578 42.3135 40.7071 42.8721L40.2022 42.249C41.4913 41.4971 42.2647 39.832 42.2754 38.2529V37.8125H40.4278V37.1143H42.2754V35.6748H43.0811V37.1143H44.9073V37.8125H43.0704V38.2529ZM48.4844 35.3203V44.8701H47.668V39.9072H46.3682V44.3867H45.5625V35.5244H46.3682V39.1875H47.668V35.3203H48.4844ZM54.644 36.0293V36.7168H50.9165V37.9199H54.3754V38.6074H50.9165V39.8643C52.9521 39.8643 54.08 39.8267 55.4282 39.6064L55.5141 40.2939C54.1176 40.5195 52.9467 40.5625 50.8413 40.5625H50.0678V36.0293H54.644ZM57.394 35.3311V41.25H56.5561V35.3311H57.394ZM54.225 41.3896C56.2124 41.3789 57.437 42.0127 57.437 43.1084C57.437 44.2256 56.2124 44.8486 54.225 44.8486C52.1948 44.8486 50.9917 44.2256 50.9917 43.1084C50.9917 42.0127 52.1948 41.3789 54.225 41.3896ZM54.225 42.0557C52.7211 42.0557 51.8295 42.4531 51.8295 43.1084C51.8295 43.7852 52.7211 44.1826 54.225 44.1826C55.686 44.1826 56.6098 43.7852 56.6098 43.1084C56.6098 42.4531 55.686 42.0557 54.225 42.0557Z" fill="black"/>
</svg>
