<svg width="28" height="28" viewBox="0 0 28 28" fill="none" xmlns="http://www.w3.org/2000/svg">
<path d="M21.7724 19.1668L20.9401 18.6124C20.7619 18.88 20.7232 19.2169 20.8361 19.5179L21.7724 19.1668ZM19.1698 21.7704L19.5209 20.8341C19.2198 20.7211 18.8827 20.76 18.6151 20.9384L19.1698 21.7704ZM23.3344 23.3321L22.9833 24.2685C23.3505 24.4061 23.7642 24.3165 24.0415 24.0392C24.3188 23.7619 24.4084 23.3482 24.2707 22.981L23.3344 23.3321ZM22.3323 13.9994C22.3323 15.7071 21.8197 17.292 20.9401 18.6124L22.6047 19.7212C23.6962 18.0826 24.3323 16.1138 24.3323 13.9994H22.3323ZM13.9994 5.6665C18.6015 5.6665 22.3323 9.39727 22.3323 13.9994H24.3323C24.3323 8.2927 19.7061 3.6665 13.9994 3.6665V5.6665ZM5.6665 13.9994C5.6665 9.39727 9.39727 5.6665 13.9994 5.6665V3.6665C8.2927 3.6665 3.6665 8.2927 3.6665 13.9994H5.6665ZM13.9994 22.3323C9.39727 22.3323 5.6665 18.6015 5.6665 13.9994H3.6665C3.6665 19.7061 8.2927 24.3323 13.9994 24.3323V22.3323ZM18.6151 20.9384C17.2942 21.819 15.7082 22.3323 13.9994 22.3323V24.3323C16.1152 24.3323 18.0853 23.6953 19.7245 22.6024L18.6151 20.9384ZM18.8187 22.7067L22.9833 24.2685L23.6855 22.3958L19.5209 20.8341L18.8187 22.7067ZM24.2707 22.981L22.7087 18.8157L20.8361 19.5179L22.3981 23.6832L24.2707 22.981Z" fill="#999999"/>
<ellipse cx="9.33317" cy="14.0002" rx="1.16667" ry="1.16667" fill="#999999"/>
<circle cx="14.0002" cy="14.0002" r="1.16667" fill="#999999"/>
<circle cx="18.6667" cy="14.0002" r="1.16667" fill="#999999"/>
</svg>
