<svg width="97" height="52" viewBox="0 0 97 52" fill="none" xmlns="http://www.w3.org/2000/svg">
<rect width="96.72" height="52" transform="translate(0.280029)" fill="white"/>
<ellipse cx="37.0835" cy="18.5835" rx="1.75" ry="1.75" fill="#999999"/>
<ellipse cx="47.0002" cy="18.5835" rx="1.75" ry="1.75" fill="#999999"/>
<ellipse cx="56.917" cy="18.5835" rx="1.75" ry="1.75" fill="#999999"/>
<path d="M38.5477 36.2334V36.9424H35.0135V41.8086C36.7323 41.8086 37.8709 41.7495 39.1922 41.4971L39.2997 42.1953C37.8924 42.4639 36.7323 42.5283 34.8954 42.5283H34.1649V36.2334H38.5477ZM41.6092 35.3203V44.8916H40.7606V39.499H37.9784V38.8008H40.7606V35.3203H41.6092ZM51.6575 42.9473V43.6455H42.9133V42.9473H46.845V40.8848H43.9446V35.9971H44.7932V37.7266H49.7561V35.9971H50.5833V40.8848H47.6721V42.9473H51.6575ZM44.7932 40.1973H49.7561V38.4141H44.7932V40.1973ZM60.0407 35.3203V44.8701H59.192V35.3203H60.0407ZM57.2155 36.3623C57.2047 39.1123 55.9264 41.54 52.7252 43.0762L52.2633 42.3887C54.8468 41.1641 56.1627 39.3325 56.3561 37.0498H52.7038V36.3623H57.2155Z" fill="#767676"/>
</svg>
