<svg width="98" height="52" viewBox="0 0 98 52" fill="none" xmlns="http://www.w3.org/2000/svg">
<rect width="97.76" height="52" fill="white"/>
<path d="M38.6667 14.6059L48.0001 8.6665L57.3334 14.6059V27.3332H38.6667V14.6059Z" stroke="#111111" stroke-width="1.5" stroke-linecap="round" stroke-linejoin="round"/>
<path d="M45.6667 20.3335H50.3334" stroke="#111111" stroke-width="1.5" stroke-linecap="round"/>
<path d="M51.271 42.0127V44.7412H44.6968V42.0127H51.271ZM45.5347 42.668V44.0859H50.4438V42.668H45.5347ZM51.8296 36.126V36.7812H44.0845V36.126H47.5649V35.1807H48.4028V36.126H51.8296ZM47.9839 37.168C49.9604 37.1787 51.0776 37.6299 51.0776 38.5215C51.0776 39.3594 50.1162 39.8052 48.4028 39.8643V40.6055H52.3345V41.2822H43.6333V40.6055H47.5649V39.8643C45.8462 39.8052 44.8794 39.3594 44.8794 38.5215C44.8794 37.6299 46.0073 37.1787 47.9839 37.168ZM47.9839 37.7588C46.5767 37.7695 45.771 38.0273 45.7817 38.5215C45.771 39.0049 46.5767 39.2842 47.9839 39.2842C49.3804 39.2842 50.186 39.0049 50.186 38.5215C50.186 38.0273 49.3804 37.7695 47.9839 37.7588Z" fill="#111111"/>
</svg>
