<svg width="99" height="52" viewBox="0 0 99 52" fill="none" xmlns="http://www.w3.org/2000/svg">
<rect width="97.76" height="52" transform="translate(0.52002)" fill="white"/>
<rect x="40" y="18" width="3" height="10" rx="1.5" fill="#999999"/>
<rect x="47" y="12" width="3" height="16" rx="1.5" fill="#999999"/>
<rect x="54" y="8" width="3" height="20" rx="1.5" fill="#999999"/>
<path d="M48.7386 40.3906V41.0781H40.0267V40.3906H43.9583V39.4453H41.1868V35.5996H47.6536V36.2871H42.0354V37.1787H47.3958V37.8232H42.0354V38.7686H47.7073V39.4453H44.7962V40.3906H48.7386ZM44.388 41.7979C46.4827 41.7871 47.6644 42.3242 47.6751 43.3232C47.6644 44.3223 46.4827 44.8486 44.388 44.8486C42.2718 44.8486 41.0901 44.3223 41.0901 43.3232C41.0901 42.3242 42.2718 41.7871 44.388 41.7979ZM44.388 42.4316C42.8089 42.4316 41.928 42.7539 41.9388 43.3232C41.928 43.9033 42.8089 44.2041 44.388 44.1934C45.9456 44.2041 46.8265 43.9033 46.8265 43.3232C46.8265 42.7539 45.9456 42.4316 44.388 42.4316ZM57.444 35.3203V44.8701H56.6384V35.3203H57.444ZM55.5104 35.5781V44.3867H54.7048V41.0781H52.9323V40.3799H54.7048V38.6826H53.0935C52.6262 40.2993 51.5788 41.728 49.7741 42.8076L49.2585 42.1953C51.3371 40.9653 52.3791 39.2412 52.5456 37.2432H49.6882V36.5449H53.3835C53.3835 37.0337 53.3405 37.5171 53.2546 37.9844H54.7048V35.5781H55.5104Z" fill="#767676"/>
</svg>
