<svg width="97" height="13" viewBox="0 0 97 13" fill="none" xmlns="http://www.w3.org/2000/svg">
<path d="M0.15625 12V0.6875H4.1875C6.8125 0.6875 8.10938 2.15625 8.10938 4.23438C8.10938 5.75781 7.42188 6.91406 6.04688 7.42188L8.54688 12H6.59375L4.29688 7.73438H4.1875H1.875V12H0.15625ZM1.875 6.25H4.01562C5.6875 6.25 6.375 5.51562 6.375 4.23438C6.375 2.95312 5.6875 2.15625 4.01562 2.15625H1.875V6.25ZM13.4219 12.1719C10.9219 12.1719 9.39062 10.4531 9.39062 7.8125C9.39062 5.20312 10.9531 3.40625 13.3125 3.40625C15.25 3.40625 17.0781 4.60938 17.0781 7.67188V8.26562H11.0469C11.0938 9.875 12.0391 10.7969 13.4375 10.7969C14.3906 10.7969 15 10.3906 15.2812 9.875H16.9688C16.5938 11.25 15.2812 12.1719 13.4219 12.1719ZM11.0625 7.01562H15.4375C15.4375 5.71875 14.6094 4.78125 13.3281 4.78125C11.9922 4.78125 11.125 5.8125 11.0625 7.01562ZM18.875 12V0.6875H20.5312V4.89062H20.625C20.9375 4.35938 21.5 3.40625 23.0625 3.40625C25.1094 3.40625 26.6406 5.01562 26.6406 7.78125C26.6406 10.5156 25.1406 12.1719 23.0781 12.1719C21.5312 12.1719 20.9375 11.2344 20.625 10.6719H20.5V12H18.875ZM20.5 7.75C20.5 9.53125 21.2969 10.75 22.7031 10.75C24.1719 10.75 24.9375 9.45312 24.9375 7.75C24.9375 6.07812 24.1875 4.82812 22.7031 4.82812C21.2812 4.82812 20.5 5.98438 20.5 7.75ZM31.8906 12.1719C29.4844 12.1719 27.9219 10.4219 27.9219 7.79688C27.9219 5.15625 29.4844 3.40625 31.8906 3.40625C34.2812 3.40625 35.8438 5.15625 35.8438 7.79688C35.8438 10.4219 34.2812 12.1719 31.8906 12.1719ZM31.8906 10.7812C33.4219 10.7812 34.1562 9.42188 34.1562 7.79688C34.1562 6.17188 33.4219 4.78125 31.8906 4.78125C30.3281 4.78125 29.5938 6.17188 29.5938 7.79688C29.5938 9.42188 30.3281 10.7812 31.8906 10.7812ZM41.0781 12.1719C38.6719 12.1719 37.1094 10.4219 37.1094 7.79688C37.1094 5.15625 38.6719 3.40625 41.0781 3.40625C43.4688 3.40625 45.0312 5.15625 45.0312 7.79688C45.0312 10.4219 43.4688 12.1719 41.0781 12.1719ZM41.0781 10.7812C42.6094 10.7812 43.3438 9.42188 43.3438 7.79688C43.3438 6.17188 42.6094 4.78125 41.0781 4.78125C39.5156 4.78125 38.7812 6.17188 38.7812 7.79688C38.7812 9.42188 39.5156 10.7812 41.0781 10.7812ZM50.6406 3.51562V4.84375H48.9062V9.5C48.9062 10.4531 49.3906 10.625 49.9219 10.6406C50.1562 10.6406 50.5312 10.6094 50.7656 10.5938V12.0469C50.5312 12.0781 50.1719 12.1094 49.7188 12.1094C48.4062 12.1094 47.2344 11.3906 47.25 9.84375V4.84375H46V3.51562H47.25V1.48438H48.9062V3.51562H50.6406ZM65.7812 6.34375C65.7812 9.89062 63.7344 12.1562 60.875 12.1562C58 12.1562 55.9531 9.89062 55.9531 6.34375C55.9531 2.79688 58 0.53125 60.875 0.53125C63.7344 0.53125 65.7812 2.79688 65.7812 6.34375ZM64.7031 6.34375C64.7031 3.32812 63.0625 1.57812 60.875 1.57812C58.6875 1.57812 57.0469 3.32812 57.0469 6.34375C57.0469 9.34375 58.6719 11.1094 60.875 11.1094C63.0625 11.1094 64.7031 9.35938 64.7031 6.34375ZM71.3438 3.51562V4.42188H69.4688V12H68.4062V4.42188H67.0938V3.51562H68.4062V2.29688C68.4062 0.96875 69.2344 0.15625 70.625 0.15625C70.9062 0.15625 71.2656 0.203125 71.5 0.25V1.20312C71.25 1.15625 71.0156 1.15625 70.8438 1.15625C69.9062 1.15625 69.4688 1.59375 69.4688 2.51562V3.51562H71.3438ZM76.5625 3.51562V4.42188H74.6875V12H73.625V4.42188H72.3125V3.51562H73.625V2.29688C73.625 0.96875 74.4531 0.15625 75.8438 0.15625C76.125 0.15625 76.4844 0.203125 76.7188 0.25V1.20312C76.4688 1.15625 76.2344 1.15625 76.0625 1.15625C75.125 1.15625 74.6875 1.59375 74.6875 2.51562V3.51562H76.5625ZM78.2344 12V3.51562H79.2969V12H78.2344ZM78.7812 2.0625C78.3594 2.0625 78 1.73438 78 1.32812C78 0.921875 78.3594 0.578125 78.7812 0.578125C79.2031 0.578125 79.5625 0.921875 79.5625 1.32812C79.5625 1.73438 79.2031 2.0625 78.7812 2.0625ZM84.9531 12.1719C82.6406 12.1719 81.1719 10.3281 81.1719 7.79688C81.1719 5.23438 82.6875 3.39062 84.9375 3.39062C86.6562 3.39062 87.9844 4.46875 88.2031 6.04688H87.1406C86.9375 5.125 86.1406 4.35938 84.9531 4.35938C83.3438 4.35938 82.2344 5.73438 82.2344 7.76562C82.2344 9.79688 83.3125 11.2188 84.9531 11.2188C86.0469 11.2188 86.9062 10.5625 87.1406 9.51562H88.2188C87.9844 11.0469 86.7344 12.1719 84.9531 12.1719ZM93.4688 12.1719C91.0781 12.1719 89.5781 10.3906 89.5781 7.8125C89.5781 5.23438 91.1094 3.39062 93.3125 3.39062C95.1562 3.39062 96.9375 4.70312 96.9375 7.57812V8.07812H90.6406C90.6875 9.99219 91.7734 11.2188 93.4688 11.2188C94.6406 11.2188 95.3281 10.6094 95.625 10.0781H96.7656C96.3906 11.25 95.1875 12.1719 93.4688 12.1719ZM90.6562 7.15625H95.8438C95.8438 5.5625 94.8125 4.35938 93.3281 4.35938C91.7891 4.35938 90.7422 5.625 90.6562 7.15625Z" fill="#111111"/>
</svg>
