<svg width="310" height="120" viewBox="0 0 310 120" fill="none" xmlns="http://www.w3.org/2000/svg">
<path d="M295.829 0H14.1714C6.34477 0 0 7.16344 0 16V104C0 112.837 6.34476 120 14.1714 120H295.829C303.655 120 310 112.837 310 104V16C310 7.16344 303.655 0 295.829 0Z" fill="#0C1C56"/>
<path d="M44.2083 76.7793V78.0996H49.845V76.7793H50.8479V81.1338H43.218V76.7793H44.2083ZM44.2083 80.334H49.845V78.8867H44.2083V80.334ZM52.1936 75.1543V75.9795H41.9104V75.1543H52.1936ZM47.5725 70.6602C47.5725 72.0566 49.6291 73.3008 51.6096 73.5547L51.2415 74.3545C49.4895 74.0942 47.7756 73.1992 47.0647 71.9297C46.3411 73.2056 44.6145 74.0942 42.8752 74.3545L42.4944 73.5547C44.5002 73.2881 46.5442 72.0947 46.5442 70.6602V70.127H47.5725V70.6602Z" fill="white"/>
<path d="M36.6621 71.0537C36.6621 72.6406 38.7441 74.0244 40.7754 74.3037L40.3691 75.1162C38.6172 74.8242 36.8843 73.853 36.1543 72.4629C35.4307 73.8594 33.6914 74.8242 31.9395 75.1162L31.5332 74.3037C33.5645 74.0244 35.6338 72.666 35.6338 71.0537V70.4062H36.6621V71.0537ZM41.2832 76.3604V77.1982H36.6113V81.2861H35.6338V77.1982H31V76.3604H41.2832Z" fill="white"/>
<path d="M165 70.0127V78.3916H163.997V74.0117H161.788V73.1865H163.997V70.0127H165ZM165.305 80.207V81.0449H157.726V77.668H158.729V80.207H165.305ZM161.306 70.8887V71.7139H157.218V73.2881H161.001V74.0879H157.218V75.7637C159.3 75.7637 160.481 75.7192 161.915 75.459L162.004 76.2842C160.506 76.5508 159.262 76.6016 157.053 76.6016H156.228V70.8887H161.306Z" fill="white"/>
<path d="M154.052 70.0127V78.2646H153.062V70.0127H154.052ZM154.407 80.207V81.0449H146.765V77.4268H147.755V80.207H154.407ZM147.958 70.7998C149.646 70.7998 150.916 71.9424 150.916 73.5674C150.916 75.2178 149.646 76.3477 147.958 76.3477C146.27 76.3477 145 75.2178 145 73.5674C145 71.9424 146.27 70.7998 147.958 70.7998ZM147.958 71.6758C146.815 71.6758 145.965 72.4629 145.978 73.5674C145.965 74.6973 146.815 75.4717 147.958 75.4717C149.075 75.4717 149.938 74.6973 149.938 73.5674C149.938 72.4629 149.075 71.6758 147.958 71.6758Z" fill="white"/>
<path d="M277.986 70.0127V78.582H276.983V77.4141H274.647V76.6904H276.983V70.0127H277.986ZM278.265 80.207V81.0449H270.242V77.7441H271.245V80.207H278.265ZM268.617 75.2432C270.724 75.2305 273.542 75.2178 275.967 74.9131L276.031 75.6367C275.021 75.7954 273.968 75.897 272.933 75.9541V78.1885H271.93V76.0049C270.788 76.0557 269.702 76.062 268.756 76.0557L268.617 75.2432ZM272.324 70.4697C273.974 70.4697 275.104 71.2568 275.117 72.4375C275.104 73.6436 273.974 74.3926 272.324 74.3926C270.661 74.3926 269.531 73.6436 269.531 72.4375C269.531 71.2568 270.661 70.4697 272.324 70.4697ZM272.324 71.2314C271.219 71.2188 270.47 71.7139 270.483 72.4375C270.47 73.1738 271.219 73.6562 272.324 73.6562C273.39 73.6562 274.152 73.1738 274.165 72.4375C274.152 71.7139 273.39 71.2188 272.324 71.2314Z" fill="white"/>
<path d="M261.553 73.0342C261.553 75.0273 262.874 77.0713 264.473 77.8584L263.864 78.6582C262.62 78.0044 261.579 76.6714 261.083 75.1035C260.576 76.7729 259.509 78.1948 258.24 78.874L257.605 78.0742C259.255 77.2617 260.563 75.0908 260.576 73.0342V70.9775H261.553V73.0342ZM266.504 70V74.583H268.396V75.4463H266.504V81.2861H265.514V70H266.504Z" fill="white"/>
<path d="M250.859 71.6377C250.846 73.2881 252.039 74.748 253.715 75.332L253.207 76.1191C251.9 75.6431 250.865 74.6655 250.364 73.415C249.862 74.7544 248.815 75.8081 247.494 76.3223L246.974 75.5352C248.662 74.9131 249.843 73.3389 249.843 71.6377V70.5586H250.859V71.6377ZM256.178 77.3633V81.2861H255.188V78.1885H248.586V77.3633H256.178ZM256.178 70V76.8047H255.188V70H256.178Z" fill="white"/>
<path d="M245.306 70V76.7285H244.303V73.7705H242.03V72.9453H244.303V70H245.306ZM241.561 77.084C243.909 77.084 245.344 77.8457 245.344 79.1787C245.344 80.5117 243.909 81.2734 241.561 81.2861C239.212 81.2734 237.777 80.5117 237.777 79.1787C237.777 77.8457 239.212 77.084 241.561 77.084ZM241.561 77.8584C239.834 77.8584 238.755 78.3535 238.768 79.1787C238.755 79.9912 239.834 80.4863 241.561 80.4863C243.287 80.4863 244.354 79.9912 244.354 79.1787C244.354 78.3535 243.287 77.8584 241.561 77.8584ZM239.872 72.0693C239.872 73.542 241.002 74.9385 242.652 75.5098L242.132 76.3096C240.862 75.8525 239.878 74.9067 239.402 73.7324C238.907 75.0591 237.86 76.1191 236.521 76.627L236 75.8271C237.676 75.2178 238.869 73.6943 238.869 72.082V71.6631H236.317V70.8252H242.398V71.6631H239.872V72.0693Z" fill="white"/>
<path d="M31 94.7861C31 90.644 34.3579 87.2861 38.5 87.2861H61V102.286H38.5C34.3579 102.286 31 98.9283 31 94.7861Z" fill="white"/>
<path d="M62 87.2861H92V102.286H62V87.2861Z" fill="white"/>
<path d="M93 87.2861H123V102.286H93V87.2861Z" fill="white"/>
<path d="M124 87.2861H154V102.286H124V87.2861Z" fill="white"/>
<path d="M155 87.2861H185V102.286H155V87.2861Z" fill="white"/>
<path d="M186 87.2861H216V102.286H186V87.2861Z" fill="white" fill-opacity="0.3"/>
<path d="M217 87.2861H247V102.286H217V87.2861Z" fill="white" fill-opacity="0.3"/>
<path d="M248 87.2861H270.5C274.642 87.2861 278 90.644 278 94.7861C278 98.9283 274.642 102.286 270.5 102.286H248V87.2861Z" fill="white" fill-opacity="0.3"/>
<path d="M35.5 17.8906C37.5781 17.9062 39.0938 19.1562 39.0938 20.9688C39.0938 22.7812 37.5781 24.0312 35.5 24.0312C33.3906 24.0312 31.8906 22.7812 31.8906 20.9688C31.8906 19.1562 33.3906 17.9062 35.5 17.8906ZM35.5 18.9219C34.1094 18.9219 33.0781 19.7656 33.0938 20.9688C33.0781 22.1875 34.1094 23.0312 35.5 23.0312C36.875 23.0312 37.9062 22.1875 37.9062 20.9688C37.9062 19.7656 36.875 18.9219 35.5 18.9219ZM43.0312 17.375V24.5156H41.8125V17.375H43.0312ZM43.0312 25.1875V28.5312H35.2344V30.0938H43.5312V31.0781H34.0312V27.6094H41.8125V26.1719H34V25.1875H43.0312ZM49.6313 19.625C49.6313 21.5156 51.0688 23.25 53.0844 23.9375L52.4125 24.9062C50.8734 24.3438 49.6625 23.1953 49.0531 21.75C48.4594 23.3828 47.225 24.6719 45.6 25.2969L44.9438 24.3125C47.0219 23.5312 48.4125 21.6719 48.4281 19.5312V18.0938H49.6313V19.625ZM55.85 17.375V21H57.9438V22.0312H55.85V25.8281H54.6313V17.375H55.85ZM51.3969 26.1875C54.2563 26.1875 55.975 27.1094 55.975 28.7031C55.975 30.3281 54.2563 31.2344 51.3969 31.2344C48.5375 31.2344 46.7875 30.3281 46.7875 28.7031C46.7875 27.1094 48.5375 26.1875 51.3969 26.1875ZM51.3969 27.1719C49.3031 27.1719 48.0063 27.75 48.0219 28.7031C48.0063 29.6875 49.3031 30.25 51.3969 30.2656C53.5063 30.25 54.7875 29.6875 54.7875 28.7031C54.7875 27.75 53.5063 27.1719 51.3969 27.1719ZM69.8094 17.375V31.2656H68.5906V17.375H69.8094ZM58.4969 27.5625C59.6844 27.5547 61.0438 27.5469 62.45 27.5V25.9844C60.7859 25.8047 59.7 24.8594 59.7156 23.4688C59.7 21.9062 61.0438 20.8906 63.0438 20.8906C65.0438 20.8906 66.4031 21.9062 66.4031 23.4688C66.4031 24.8438 65.325 25.7891 63.6844 25.9688V27.4531C65.0281 27.3984 66.3875 27.2969 67.6688 27.125L67.7625 28.0625C64.6688 28.5625 61.2625 28.6094 58.6844 28.6094L58.4969 27.5625ZM67.3094 19.0938V20.0938H58.7938V19.0938H62.45V17.3906H63.6844V19.0938H67.3094ZM63.0438 21.8438C61.7625 21.8438 60.8563 22.5 60.8563 23.4688C60.8563 24.4375 61.7625 25.0625 63.0438 25.0469C64.3406 25.0625 65.2313 24.4375 65.2313 23.4688C65.2313 22.5 64.3406 21.8438 63.0438 21.8438ZM84.5031 24.5625V25.5781H71.8469V24.5625H77.5656V22.8906H73.5344V17.7031H74.7531V19.3125H81.6281V17.7031H82.8469V22.8906H78.7844V24.5625H84.5031ZM82.9406 26.9531V31.2656H81.7062V27.9375H73.2531V26.9531H82.9406ZM74.7531 21.9062H81.6281V20.25H74.7531V21.9062ZM92.7438 18.2344V19.25H87.3219V20.9844H92.3531V21.9688H87.3219V23.8125C90.2828 23.8281 91.9234 23.7578 93.8844 23.4219L94.0094 24.4219C91.9781 24.7812 90.275 24.8125 87.2125 24.8125H86.0875V18.2344H92.7438ZM96.7438 17.3906V25.6719H95.525V17.3906H96.7438ZM96.7438 26.3594V31.0781H87.7125V26.3594H96.7438ZM88.9156 27.3438V30.0781H95.5406V27.3438H88.9156ZM104.787 17.0938V31.5938H103.631V17.0938H104.787ZM121.894 17.3906V27.5469H120.675V17.3906H121.894ZM122.331 29.9375V30.9688H112.925V26.5156H114.144V29.9375H122.331ZM114.394 18.3594C116.472 18.3594 118.034 19.7656 118.034 21.7656C118.034 23.7969 116.472 25.1875 114.394 25.1875C112.316 25.1875 110.753 23.7969 110.753 21.7656C110.753 19.7656 112.316 18.3594 114.394 18.3594ZM114.394 19.4375C112.988 19.4375 111.941 20.4062 111.956 21.7656C111.941 23.1562 112.988 24.1094 114.394 24.1094C115.769 24.1094 116.831 23.1562 116.831 21.7656C116.831 20.4062 115.769 19.4375 114.394 19.4375ZM135.369 17.3906V27.7031H134.134V22.3125H131.416V21.2969H134.134V17.3906H135.369ZM135.744 29.9375V30.9688H126.416V26.8125H127.65V29.9375H135.744ZM130.822 18.4688V19.4844H125.791V21.4219H130.447V22.4062H125.791V24.4688C128.353 24.4688 129.806 24.4141 131.572 24.0938L131.681 25.1094C129.838 25.4375 128.306 25.5 125.588 25.5H124.572V18.4688H130.822Z" fill="white"/>
</svg>
