<svg width="310" height="120" viewBox="0 0 310 120" fill="none" xmlns="http://www.w3.org/2000/svg">
<path d="M295.829 0H14.1714C6.34477 0 0 7.16344 0 16V104C0 112.837 6.34476 120 14.1714 120H295.829C303.655 120 310 112.837 310 104V16C310 7.16344 303.655 0 295.829 0Z" fill="#0C1C56"/>
<path d="M42.7031 17.8438V22.75H38.7656V24.2344H44.3438V25.6406H31.4688V24.2344H37.0156V22.75H33.0938V17.8438H42.7031ZM34.7812 19.2031V21.375H40.9844V19.2031H34.7812ZM42.7656 26.8281V31.3906H41.0312V28.2031H32.8906V26.8281H42.7656ZM57.8031 28.3594V29.7656H44.8969V28.3594H48.2406V25.4531H46.0063V24.0469H47.9906V19.8594H45.9594V18.4688H56.6781V19.8594H54.6156V24.0469H56.6313V25.4531H54.3969V28.3594H57.8031ZM49.725 24.0469H52.8969V19.8594H49.725V24.0469ZM49.975 28.3594H52.6625V25.4531H49.975V28.3594ZM69.5906 17.2656V22.9062H71.5438V24.3438H69.5906V31.3906H67.8406V17.2656H69.5906ZM62.5594 18.75C62.5438 22.4531 62.0281 25.5781 59.4813 28.3281L58.1219 27.3438C60.1141 25.2344 60.7625 23 60.9031 20.1719H58.6844V18.75H62.5594ZM66.4656 18.75C66.45 22.5469 66.0594 26.1719 63.5125 29.2344L62.1219 28.2812C64.1375 25.8828 64.7 23.2344 64.825 20.1719H63.0281V18.75H66.4656ZM77.0812 21.2812C77.0812 23.5938 78.4406 26.0312 80.7219 26.9844L79.7687 28.3594C78.0969 27.6406 76.8781 26.1562 76.2375 24.3594C75.5812 26.2969 74.3469 27.9219 72.6906 28.7031L71.6906 27.3438C73.925 26.3125 75.3156 23.6875 75.3156 21.2812V20.0938H72.2062V18.6562H80.175V20.0938H77.0812V21.2812ZM83.5031 17.2656V31.3906H81.7531V17.2656H83.5031ZM99.7188 17.2812V20.5156H101.688V21.9219H99.7188V25.1719H97.9844V17.2812H99.7188ZM100.016 25.8281V27.2031H98.2188V29.7656H100.203V31.1719H90.4062V29.7656H92.3438V27.2031H90.5V25.8281H100.016ZM92.5469 18.0312C94.7188 18.0312 96.3438 19.4062 96.3594 21.3906C96.3438 23.3594 94.7188 24.7344 92.5469 24.7344C90.3594 24.7344 88.7188 23.3594 88.7344 21.3906C88.7188 19.4062 90.3594 18.0312 92.5469 18.0312ZM92.5469 19.4844C91.3281 19.4688 90.4219 20.2188 90.4375 21.3906C90.4219 22.5625 91.3281 23.2969 92.5469 23.2969C93.75 23.2969 94.6562 22.5625 94.6562 21.3906C94.6562 20.2188 93.75 19.4688 92.5469 19.4844ZM94.0312 29.7656H96.5312V27.2031H94.0312V29.7656ZM108.428 18.0625C111.412 18.0625 113.694 19.6406 113.694 22.0469C113.694 24.4844 111.412 26.0625 108.428 26.0625C105.459 26.0625 103.178 24.4844 103.194 22.0469C103.178 19.6406 105.459 18.0625 108.428 18.0625ZM108.428 19.4688C106.381 19.4531 104.866 20.4844 104.866 22.0469C104.866 23.6406 106.381 24.6406 108.428 24.6406C110.491 24.6406 111.991 23.6406 111.991 22.0469C111.991 20.4844 110.491 19.4531 108.428 19.4688ZM114.912 28.1875V29.6094H102.006V28.1875H114.912ZM128.341 28.3125V29.75H115.434V28.3125H120.997V26.0156H116.966V21.3906H125.091V19.6406H116.934V18.2344H126.809V22.7656H118.7V24.5938H127.137V26.0156H122.716V28.3125H128.341ZM133.15 30L138.056 20.4688V20.3906H132.369V18.6875H140.166V20.4219L135.259 30H133.15ZM144.938 17.7188C147.078 17.7188 148.672 19.0469 148.688 20.9062C148.672 22.7812 147.078 24.0938 144.938 24.0938C142.781 24.0938 141.188 22.7812 141.188 20.9062C141.188 19.0469 142.781 17.7188 144.938 17.7188ZM144.938 19.1562C143.75 19.1562 142.875 19.8281 142.875 20.9062C142.875 22 143.75 22.6875 144.938 22.6875C146.125 22.6875 147 22 147 20.9062C147 19.8281 146.125 19.1562 144.938 19.1562ZM152.703 17.2656V24.4062H150.953V17.2656H152.703ZM152.703 25.0156V28.7031H145.062V29.8438H153.125V31.2188H143.359V27.4219H150.969V26.375H143.328V25.0156H152.703ZM157.272 18.6875L157.1 26.6719H155.334L155.147 18.6875H157.272ZM156.225 30.125C155.553 30.125 155.006 29.5781 155.006 28.9062C155.006 28.25 155.553 27.7031 156.225 27.7031C156.866 27.7031 157.428 28.25 157.428 28.9062C157.428 29.5781 156.866 30.125 156.225 30.125Z" fill="white"/>
<path d="M35.1133 67.8086V77H33.958V69.002H33.9072L31.6729 70.4873V69.332L33.958 67.8086H35.1133ZM40.0314 67.1611C41.7199 67.1738 42.9514 68.1895 42.9514 69.6621C42.9514 71.1348 41.7199 72.1504 40.0314 72.1504C38.3176 72.1504 37.0988 71.1348 37.0988 69.6621C37.0988 68.1895 38.3176 67.1738 40.0314 67.1611ZM40.0314 67.999C38.9016 67.999 38.0637 68.6846 38.0764 69.6621C38.0637 70.6523 38.9016 71.3379 40.0314 71.3379C41.1486 71.3379 41.9865 70.6523 41.9865 69.6621C41.9865 68.6846 41.1486 67.999 40.0314 67.999ZM46.1506 66.7422V72.5439H45.1604V66.7422H46.1506ZM46.1506 73.0898V75.8066H39.8156V77.0762H46.5568V77.876H38.8381V75.0576H45.1604V73.8896H38.8127V73.0898H46.1506Z" fill="white"/>
<path d="M149.113 67.8086V77H147.958V69.002H147.907L145.673 70.4873V69.332L147.958 67.8086H149.113ZM151.01 75.1211V74.1816L155.149 67.8086H156.558V74.1182H157.84V75.1211H156.558V77H155.466V75.1211H151.01ZM152.241 74.1182H155.466V69.2559H155.352L152.241 74.042V74.1182ZM161.819 67.1611C163.507 67.1738 164.739 68.1895 164.739 69.6621C164.739 71.1348 163.507 72.1504 161.819 72.1504C160.105 72.1504 158.886 71.1348 158.886 69.6621C158.886 68.1895 160.105 67.1738 161.819 67.1611ZM161.819 67.999C160.689 67.999 159.851 68.6846 159.864 69.6621C159.851 70.6523 160.689 71.3379 161.819 71.3379C162.936 71.3379 163.774 70.6523 163.774 69.6621C163.774 68.6846 162.936 67.999 161.819 67.999ZM167.938 66.7422V72.5439H166.948V66.7422H167.938ZM167.938 73.0898V75.8066H161.603V77.0762H168.344V77.876H160.625V75.0576H166.948V73.8896H160.6V73.0898H167.938Z" fill="white"/>
<path d="M254.948 77L254.935 76.1621L258.071 72.8613C259.163 71.7061 259.683 71.084 259.683 70.2334C259.683 69.2939 258.883 68.6719 257.855 68.6719C256.763 68.6719 256.065 69.3701 256.065 70.3984H254.986C254.973 68.7734 256.23 67.6816 257.893 67.6816C259.556 67.6816 260.75 68.7988 260.75 70.2334C260.75 71.2617 260.267 72.0615 258.642 73.7373L256.535 75.9082V75.9844H260.915V77H254.948ZM265.503 67.8086V77H264.347V69.002H264.297L262.062 70.4873V69.332L264.347 67.8086H265.503ZM270.421 67.1611C272.109 67.1738 273.341 68.1895 273.341 69.6621C273.341 71.1348 272.109 72.1504 270.421 72.1504C268.707 72.1504 267.488 71.1348 267.488 69.6621C267.488 68.1895 268.707 67.1738 270.421 67.1611ZM270.421 67.999C269.291 67.999 268.453 68.6846 268.466 69.6621C268.453 70.6523 269.291 71.3379 270.421 71.3379C271.538 71.3379 272.376 70.6523 272.376 69.6621C272.376 68.6846 271.538 67.999 270.421 67.999ZM276.54 66.7422V72.5439H275.55V66.7422H276.54ZM276.54 73.0898V75.8066H270.205V77.0762H276.946V77.876H269.228V75.0576H275.55V73.8896H269.202V73.0898H276.54Z" fill="white"/>
<path d="M31 94.5C31 90.3579 34.3579 87 38.5 87H61V102H38.5C34.3579 102 31 98.6421 31 94.5Z" fill="white"/>
<path d="M62 87H92V102H62V87Z" fill="white"/>
<path d="M93 87H123V102H93V87Z" fill="white"/>
<path d="M124 87H154V102H124V87Z" fill="white"/>
<path d="M155 87H185V102H155V87Z" fill="white"/>
<path d="M186 87H216V102H186V87Z" fill="white" fill-opacity="0.3"/>
<path d="M217 87H247V102H217V87Z" fill="white" fill-opacity="0.3"/>
<path d="M248 87H270.5C274.642 87 278 90.3579 278 94.5C278 98.6421 274.642 102 270.5 102H248V87Z" fill="white" fill-opacity="0.3"/>
</svg>
