<svg width="300" height="242" viewBox="0 0 300 242" fill="none" xmlns="http://www.w3.org/2000/svg">
<path d="M0 16C0 7.16344 7.16344 0 16 0H84C92.8366 0 100 7.16344 100 16V60H0V16Z" fill="#0C1C56"/>
<path d="M32.6682 29.2031V30.3242H27.801V31.2266H31.2873V34.125H24.26V34.9727H31.6291V36.1074H22.7697V33.0859H29.7971V32.3203H22.7561V31.2266H26.2971V30.3242H21.4572V29.2031H32.6682ZM27.801 23.8301V24.8691H31.5881V26.0039H27.965C28.259 26.8789 29.6945 27.5352 32.1623 27.6582L31.7111 28.793C29.4963 28.6562 27.8283 28.0547 27.049 27.0566C26.2697 28.0547 24.6086 28.6562 22.3732 28.793L21.9494 27.6582C24.3898 27.5352 25.8254 26.8789 26.1467 26.0039H22.5373V24.8691H26.2971V23.8301H27.801ZM43.0916 24.5684V25.5938C43.0916 26.6328 43.0916 27.8291 42.8182 29.3945H44.4725V30.6387H33.1795V29.3945H41.2732C41.5535 27.9043 41.574 26.7969 41.574 25.7988H34.574V24.5684H43.0916ZM43.4471 34.7266V35.957H34.6424V31.8145H36.1463V34.7266H43.4471ZM52.3584 24.6367L49.1729 36.4902H47.6416L50.8408 24.6367H52.3584ZM62.965 29.627V30.8301H60.4084V32.5391C61.4816 32.4775 62.5617 32.3818 63.5803 32.2383L63.7033 33.332C60.9279 33.8789 57.9611 33.8789 55.7873 33.8926L55.5959 32.6484C56.5598 32.6416 57.6945 32.6348 58.8908 32.5938V30.8301H56.4982V24.9102H62.924V26.127H58.0295V27.2754H62.6779V28.4512H58.0295V29.627H62.965ZM65.8361 23.8574V36.2305H64.3186V23.8574H65.8361ZM77.2029 24.5684V25.5938C77.2029 26.6328 77.2029 27.8291 76.9295 29.3945H78.5838V30.6387H67.2908V29.3945H75.3846C75.6648 27.9043 75.6854 26.7969 75.6854 25.7988H68.6854V24.5684H77.2029ZM77.5584 34.7266V35.957H68.7537V31.8145H70.2576V34.7266H77.5584Z" fill="white"/>
<path d="M100 16C100 7.16344 107.163 0 116 0H184C192.837 0 200 7.16344 200 16V60H100V16Z" fill="#F1F1F5"/>
<path d="M129.543 25.7168C129.529 27.4941 130.814 29.0664 132.619 29.6953L132.072 30.543C130.664 30.0303 129.55 28.9775 129.01 27.6309C128.47 29.0732 127.342 30.208 125.92 30.7617L125.359 29.9141C127.178 29.2441 128.449 27.5488 128.449 25.7168V24.5547H129.543V25.7168ZM135.271 31.8828V36.1074H134.205V32.7715H127.096V31.8828H135.271ZM135.271 23.9531V31.2812H134.205V23.9531H135.271ZM141.06 27.2207C141.06 29.3672 142.482 31.5684 144.204 32.416L143.548 33.2773C142.208 32.5732 141.087 31.1377 140.554 29.4492C140.007 31.2471 138.859 32.7783 137.492 33.5098L136.808 32.6484C138.585 31.7734 139.994 29.4355 140.007 27.2207V25.0059H141.06V27.2207ZM146.392 23.9531V28.8887H148.429V29.8184H146.392V36.1074H145.326V23.9531H146.392ZM155.249 24.5273C156.882 24.5137 158.12 25.4639 158.352 26.8652H160.895V23.9531H161.975V30.4746H160.895V27.7539H158.366C158.147 29.1895 156.896 30.1465 155.249 30.1465C153.403 30.1465 152.09 28.998 152.09 27.3301C152.09 25.6758 153.403 24.5137 155.249 24.5273ZM155.249 25.4434C154.004 25.4297 153.116 26.209 153.116 27.3301C153.116 28.4375 154.004 29.2441 155.249 29.2441C156.479 29.2441 157.354 28.4375 157.354 27.3301C157.354 26.209 156.479 25.4297 155.249 25.4434ZM155.221 31.0898V32.6348H160.895V31.0898H161.975V35.9434H154.141V31.0898H155.221ZM155.221 35.0684H160.895V33.4961H155.221V35.0684ZM174.764 31.0215V31.9102H169.692V36.1074H168.639V31.9102H163.635V31.0215H174.764ZM173.315 24.6367V29.3672H165.071V24.6367H173.315ZM166.123 25.5117V28.5195H172.248V25.5117H166.123Z" fill="#999999"/>
<path d="M200 16C200 7.16344 207.163 0 216 0H284C292.837 0 300 7.16344 300 16V60H200V16Z" fill="#F1F1F5"/>
<path d="M229.215 24.7461C231.129 24.7598 232.482 25.9082 232.482 27.6035C232.482 29.1348 231.375 30.2217 229.748 30.4062V32.4844C230.951 32.4229 232.175 32.3203 233.33 32.1426L233.412 32.9355C230.637 33.4551 227.642 33.4688 225.455 33.4688L225.304 32.5664C226.296 32.5664 227.451 32.5664 228.668 32.5254V30.4062C227.041 30.2148 225.92 29.1348 225.933 27.6035C225.92 25.9082 227.301 24.7598 229.215 24.7461ZM229.215 25.6895C227.916 25.6895 226.972 26.4688 226.986 27.6035C226.972 28.7383 227.916 29.5312 229.215 29.5176C230.5 29.5312 231.429 28.7383 231.429 27.6035C231.429 26.4688 230.5 25.6895 229.215 25.6895ZM235.203 23.9531V36.1348H234.137V23.9531H235.203ZM246.652 24.6914V25.6348C246.652 26.6533 246.652 27.8906 246.337 29.5449H248.115V30.4473H236.986V29.5449H245.257C245.585 27.8633 245.585 26.6738 245.585 25.6348V25.5664H238.394V24.6914H246.652ZM247.021 34.9316V35.834H238.462V31.8145H239.529V34.9316H247.021ZM255.249 24.5273C256.882 24.5137 258.12 25.4639 258.352 26.8652H260.895V23.9531H261.975V30.4746H260.895V27.7539H258.366C258.147 29.1895 256.896 30.1465 255.249 30.1465C253.403 30.1465 252.09 28.998 252.09 27.3301C252.09 25.6758 253.403 24.5137 255.249 24.5273ZM255.249 25.4434C254.004 25.4297 253.116 26.209 253.116 27.3301C253.116 28.4375 254.004 29.2441 255.249 29.2441C256.479 29.2441 257.354 28.4375 257.354 27.3301C257.354 26.209 256.479 25.4297 255.249 25.4434ZM255.221 31.0898V32.6348H260.895V31.0898H261.975V35.9434H254.141V31.0898H255.221ZM255.221 35.0684H260.895V33.4961H255.221V35.0684ZM274.764 31.0215V31.9102H269.692V36.1074H268.639V31.9102H263.635V31.0215H274.764ZM273.315 24.6367V29.3672H265.071V24.6367H273.315ZM266.123 25.5117V28.5195H272.248V25.5117H266.123Z" fill="#999999"/>
<path d="M0 60H300V226C300 234.837 292.837 242 284 242H16C7.16345 242 0 234.837 0 226V60Z" fill="#0C1C56"/>
<path fill-rule="evenodd" clip-rule="evenodd" d="M60.0613 88.8332C58.5727 88.6137 57.0496 88.5 55.5 88.5C42.3968 88.5 31.1923 96.6296 26.6554 108.12L60.0613 88.8332ZM24.6 122.008C24.5338 121.181 24.5 120.344 24.5 119.5C24.5 117.506 24.6882 115.556 25.0479 113.667L65.6776 90.2094C68.3438 91.1357 70.8445 92.4158 73.1235 93.9934L24.6 122.008ZM27.5808 132.989C26.5546 130.869 25.7627 128.614 25.2389 126.259L76.4777 96.6758C78.229 98.2862 79.7944 100.096 81.1381 102.068L27.5808 132.989ZM34.099 141.928C32.3844 140.291 30.8572 138.46 29.5528 136.47L83.1723 105.512C84.2337 107.608 85.0641 109.84 85.6299 112.176L34.099 141.928ZM44.639 148.544C42.0342 147.57 39.5956 146.255 37.3773 144.654L86.3452 116.382C86.4476 117.408 86.5 118.448 86.5 119.5C86.5 121.244 86.3561 122.953 86.0794 124.618L44.639 148.544ZM67.2237 148.206C63.6071 149.685 59.6487 150.5 55.5 150.5C53.6481 150.5 51.8342 150.338 50.0716 150.026L84.6551 130.06C82.635 135.636 79.0608 140.467 74.4557 144.031L67.2237 148.206Z" fill="white" fill-opacity="0.1"/>
<rect x="25.5" y="89.5" width="60" height="60" rx="30" stroke="#04B014" stroke-width="2"/>
<path d="M50.1665 111.167L54.1665 114.5L60.8332 106.5" stroke="#04B014" stroke-linecap="round" stroke-linejoin="round"/>
<path d="M48.2738 122.648C49.9496 122.648 51.143 123.575 51.1557 124.959C51.143 126.095 50.286 126.952 49.0102 127.193V128.12C49.9623 128.069 50.9208 127.98 51.8158 127.854L51.9301 128.882C49.5434 129.313 46.8773 129.352 44.935 129.352L44.7826 128.222C45.6078 128.228 46.5727 128.222 47.5883 128.184V127.193C46.2743 126.978 45.392 126.114 45.4047 124.959C45.392 123.575 46.5854 122.648 48.2738 122.648ZM48.2738 123.728C47.3598 123.728 46.7123 124.185 46.725 124.959C46.7123 125.708 47.3598 126.178 48.2738 126.19C49.1879 126.178 49.81 125.708 49.8227 124.959C49.81 124.185 49.1879 123.728 48.2738 123.728ZM53.8979 122.166V125.873H55.4467V127.041H53.8979V130.926H52.4887V122.166H53.8979ZM54.3041 132.246V133.389H46.3568V130.151H47.766V132.246H54.3041ZM66.2047 131.129V132.297H55.7184V131.129H58.4986V129.237H56.9625V125.492H63.5641V124.083H56.9371V122.94H64.9605V126.622H58.3717V128.095H65.2271V129.237H63.5514V131.129H66.2047ZM59.8697 131.129H62.1676V129.237H59.8697V131.129Z" fill="white"/>
<path fill-rule="evenodd" clip-rule="evenodd" d="M123.061 88.8332C121.573 88.6137 120.05 88.5 118.5 88.5C105.397 88.5 94.1923 96.6296 89.6554 108.12L123.061 88.8332ZM87.6 122.008C87.5338 121.181 87.5 120.344 87.5 119.5C87.5 117.506 87.6882 115.556 88.0479 113.667L128.678 90.2094C131.344 91.1357 133.845 92.4158 136.124 93.9934L87.6 122.008ZM90.5808 132.989C89.5546 130.869 88.7627 128.614 88.2389 126.259L139.478 96.6758C141.229 98.2862 142.794 100.096 144.138 102.068L90.5808 132.989ZM97.099 141.928C95.3844 140.291 93.8572 138.46 92.5528 136.47L146.172 105.512C147.234 107.608 148.064 109.84 148.63 112.176L97.099 141.928ZM107.639 148.544C105.034 147.57 102.596 146.255 100.377 144.654L149.345 116.382C149.448 117.408 149.5 118.448 149.5 119.5C149.5 121.244 149.356 122.953 149.079 124.618L107.639 148.544ZM130.224 148.206C126.607 149.685 122.649 150.5 118.5 150.5C116.648 150.5 114.834 150.338 113.072 150.026L147.655 130.06C145.635 135.636 142.061 140.467 137.456 144.031L130.224 148.206Z" fill="white" fill-opacity="0.1"/>
<rect x="88.5" y="89.5" width="60" height="60" rx="30" stroke="#04B014" stroke-width="2"/>
<path d="M113.167 111.167L117.167 114.5L123.833 106.5" stroke="#04B014" stroke-linecap="round" stroke-linejoin="round"/>
<path d="M111.274 122.648C112.95 122.648 114.143 123.575 114.156 124.959C114.143 126.095 113.286 126.952 112.01 127.193V128.12C112.962 128.069 113.921 127.98 114.816 127.854L114.93 128.882C112.543 129.313 109.877 129.352 107.935 129.352L107.783 128.222C108.608 128.228 109.573 128.222 110.588 128.184V127.193C109.274 126.978 108.392 126.114 108.405 124.959C108.392 123.575 109.585 122.648 111.274 122.648ZM111.274 123.728C110.36 123.728 109.712 124.185 109.725 124.959C109.712 125.708 110.36 126.178 111.274 126.19C112.188 126.178 112.81 125.708 112.823 124.959C112.81 124.185 112.188 123.728 111.274 123.728ZM116.898 122.166V125.873H118.447V127.041H116.898V130.926H115.489V122.166H116.898ZM117.304 132.246V133.389H109.357V130.151H110.766V132.246H117.304ZM129.205 131.129V132.297H118.718V131.129H121.499V129.237H119.963V125.492H126.564V124.083H119.937V122.94H127.961V126.622H121.372V128.095H128.227V129.237H126.551V131.129H129.205ZM122.87 131.129H125.168V129.237H122.87V131.129Z" fill="white"/>
<path fill-rule="evenodd" clip-rule="evenodd" d="M186.061 88.8332C184.573 88.6137 183.05 88.5 181.5 88.5C168.397 88.5 157.192 96.6296 152.655 108.12L186.061 88.8332ZM150.6 122.008C150.534 121.181 150.5 120.344 150.5 119.5C150.5 117.506 150.688 115.556 151.048 113.667L191.678 90.2094C194.344 91.1357 196.845 92.4158 199.124 93.9934L150.6 122.008ZM153.581 132.989C152.555 130.869 151.763 128.614 151.239 126.259L202.478 96.6758C204.229 98.2862 205.794 100.096 207.138 102.068L153.581 132.989ZM160.099 141.928C158.384 140.291 156.857 138.46 155.553 136.47L209.172 105.512C210.234 107.608 211.064 109.84 211.63 112.176L160.099 141.928ZM170.639 148.544C168.034 147.57 165.596 146.255 163.377 144.654L212.345 116.382C212.448 117.408 212.5 118.448 212.5 119.5C212.5 121.244 212.356 122.953 212.079 124.618L170.639 148.544ZM193.224 148.206C189.607 149.685 185.649 150.5 181.5 150.5C179.648 150.5 177.834 150.338 176.072 150.026L210.655 130.06C208.635 135.636 205.061 140.467 200.456 144.031L193.224 148.206Z" fill="white" fill-opacity="0.1"/>
<rect x="151.5" y="89.5" width="60" height="60" rx="30" stroke="#FFAA00" stroke-width="2"/>
<path d="M181.067 104.25C181.259 103.917 181.741 103.917 181.933 104.25L187.129 113.25C187.322 113.583 187.081 114 186.696 114H176.304C175.919 114 175.678 113.583 175.871 113.25L181.067 104.25Z" stroke="#FFAA00"/>
<path d="M169.229 127.193V128.336H165.839V131.116H170.384V132.259H159.898V131.116H164.417V128.336H161.104V123.067H162.551V127.193H169.229ZM176.292 122.839V126.292H172.674V127.701C174.515 127.708 175.575 127.65 176.787 127.422L176.927 128.564C175.556 128.793 174.363 128.831 172.116 128.831H171.278V125.238H174.883V123.956H171.252V122.839H176.292ZM180.418 122.166V129.225H179.009V127.333H176.978V126.203H179.009V124.921H176.978V123.791H179.009V122.166H180.418ZM180.418 129.771V133.63H179.009V130.9H172.573V129.771H180.418ZM191.291 122.153V128.069H189.881V122.153H191.291ZM191.291 128.552V131.51H185.019V132.411H191.659V133.528H183.623V130.481H189.894V129.656H183.597V128.552H191.291ZM188.447 122.89V123.981H187.419V126.482C187.939 126.438 188.447 126.387 188.929 126.33L188.993 127.346C186.708 127.701 184.067 127.777 182.061 127.777L181.909 126.66L183.216 126.647V123.981H182.213V122.89H188.447ZM184.575 126.622C185.07 126.609 185.571 126.59 186.073 126.559V123.981H184.575V126.622ZM203.115 131.078V132.233H192.629V131.078H195.054V128.171C194.139 127.65 193.587 126.832 193.594 125.81C193.581 123.981 195.384 122.775 197.846 122.775C200.322 122.775 202.125 123.981 202.125 125.81C202.125 126.812 201.592 127.619 200.703 128.146V131.078H203.115ZM197.846 123.893C196.133 123.893 194.965 124.616 194.977 125.81C194.965 126.99 196.133 127.727 197.846 127.727C199.56 127.727 200.741 126.99 200.741 125.81C200.741 124.616 199.56 123.893 197.846 123.893ZM196.45 131.078H199.268V128.679C198.83 128.78 198.354 128.831 197.846 128.831C197.351 128.831 196.882 128.78 196.45 128.691V131.078Z" fill="white"/>
<path fill-rule="evenodd" clip-rule="evenodd" d="M249.061 88.8332C247.573 88.6137 246.05 88.5 244.5 88.5C231.397 88.5 220.192 96.6296 215.655 108.12L249.061 88.8332ZM213.6 122.008C213.534 121.181 213.5 120.344 213.5 119.5C213.5 117.506 213.688 115.556 214.048 113.667L254.678 90.2094C257.344 91.1357 259.845 92.4158 262.124 93.9934L213.6 122.008ZM216.581 132.989C215.555 130.869 214.763 128.614 214.239 126.259L265.478 96.6758C267.229 98.2862 268.794 100.096 270.138 102.068L216.581 132.989ZM223.099 141.928C221.384 140.291 219.857 138.46 218.553 136.47L272.172 105.512C273.234 107.608 274.064 109.84 274.63 112.176L223.099 141.928ZM233.639 148.544C231.034 147.57 228.596 146.255 226.377 144.654L275.345 116.382C275.448 117.408 275.5 118.448 275.5 119.5C275.5 121.244 275.356 122.953 275.079 124.618L233.639 148.544ZM256.224 148.206C252.607 149.685 248.649 150.5 244.5 150.5C242.648 150.5 240.834 150.338 239.072 150.026L273.655 130.06C271.635 135.636 268.061 140.467 263.456 144.031L256.224 148.206Z" fill="white" fill-opacity="0.1"/>
<rect x="214.5" y="89.5" width="60" height="60" rx="30" stroke="#B20600" stroke-width="2"/>
<path d="M249.833 105.166L239.167 115.833" stroke="#DC0000" stroke-width="1.33333" stroke-linecap="round"/>
<path d="M249.833 115.833L239.167 105.166" stroke="#DC0000" stroke-width="1.33333" stroke-linecap="round"/>
<path d="M226.084 122.661C227.57 122.648 228.737 123.505 229.029 124.769H231.099V122.153H232.508V128.311H231.099V125.911H229.042C228.757 127.2 227.576 128.069 226.084 128.069C224.32 128.069 223.05 126.939 223.05 125.353C223.05 123.791 224.32 122.648 226.084 122.661ZM226.084 123.842C225.094 123.842 224.396 124.426 224.396 125.353C224.396 126.267 225.094 126.876 226.084 126.876C227.049 126.876 227.735 126.267 227.747 125.353C227.735 124.426 227.049 123.842 226.084 123.842ZM226.338 128.844V130.062H231.099V128.844H232.508V133.49H224.942V128.844H226.338ZM226.338 132.348H231.099V131.154H226.338V132.348ZM244.282 128.653V129.796H239.711V133.617H238.315V129.796H233.795V128.653H244.282ZM242.999 122.737V127.308H235.078V122.737H242.999ZM236.461 123.867V126.203H241.59V123.867H236.461ZM247.473 122.331V123.232H252.424V122.331H253.821V126.152H246.077V122.331H247.473ZM247.473 125.099H252.424V124.261H247.473V125.099ZM255.179 126.863V128.019H250.634V128.869H253.872V131.649H247.346V132.449H254.189V133.528H245.962V130.659H252.488V129.91H245.95V128.869H249.225V128.019H244.718V126.863H255.179ZM259.755 124.515C259.755 125.759 260.681 126.978 262.484 127.473L261.837 128.564C260.516 128.209 259.577 127.435 259.069 126.444C258.561 127.536 257.603 128.38 256.238 128.768L255.565 127.676C257.381 127.168 258.346 125.886 258.346 124.515V124.489H255.946V123.372H258.346V122.103H259.767V123.372H262.154V124.489H259.755V124.515ZM264.68 122.153V124.921H266.28V126.089H264.68V128.907H263.271V122.153H264.68ZM264.68 129.39V133.49H257.266V129.39H264.68ZM258.663 130.507V132.348H263.284V130.507H258.663Z" fill="white"/>
<rect x="25" y="152" width="61" height="61" rx="30.5" stroke="#999999"/>
<path d="M36.6475 178.723V186.5H35.6699V179.732H35.627L33.7363 180.989V180.012L35.6699 178.723H36.6475ZM41.4707 178.723V186.5H40.4932V179.732H40.4502L38.5596 180.989V180.012L40.4932 178.723H41.4707ZM51.0742 177.831V183.46H50.2256V182.934H48.292V182.375H50.2256V177.831H51.0742ZM43.168 181.43C45.0156 181.44 47.3789 181.419 49.4414 181.193L49.4951 181.741C48.5605 181.875 47.5884 181.956 46.6377 181.999V183.492H45.8105V182.031C44.9082 182.063 44.0435 182.069 43.2646 182.063L43.168 181.43ZM51.0742 183.804V185.78H45.499V186.64H51.3857V187.263H44.6719V185.189H50.2363V184.416H44.6289V183.804H51.0742ZM46.2832 178.014C47.7012 178.014 48.6465 178.572 48.6572 179.453C48.6465 180.345 47.7012 180.882 46.2832 180.882C44.8438 180.882 43.9092 180.345 43.9092 179.453C43.9092 178.572 44.8438 178.014 46.2832 178.014ZM46.2832 178.604C45.3164 178.604 44.6934 178.938 44.7041 179.453C44.6934 179.958 45.3164 180.302 46.2832 180.302C47.2393 180.302 47.8623 179.958 47.8623 179.453C47.8623 178.938 47.2393 178.604 46.2832 178.604ZM55.8115 186.5L55.8008 185.791L58.4541 182.998C59.3779 182.021 59.8184 181.494 59.8184 180.774C59.8184 179.979 59.1416 179.453 58.2715 179.453C57.3477 179.453 56.7568 180.044 56.7568 180.914H55.8438C55.833 179.539 56.8965 178.615 58.3037 178.615C59.7109 178.615 60.7207 179.561 60.7207 180.774C60.7207 181.645 60.3125 182.321 58.9375 183.739L57.1543 185.576V185.641H60.8604V186.5H55.8115ZM64.9531 186.607C63.4062 186.607 62.2998 185.78 62.2461 184.545H63.2236C63.2773 185.286 64.0186 185.748 64.9424 185.748C65.9629 185.748 66.7148 185.189 66.7148 184.384C66.7148 183.535 66.0381 182.934 64.8242 182.934H64.1904V182.085H64.8242C65.7695 182.085 66.4248 181.559 66.4248 180.753C66.4248 179.979 65.8555 179.453 64.9746 179.453C64.1475 179.453 63.3848 179.915 63.3418 180.678H62.4072C62.4609 179.442 63.5996 178.615 64.9854 178.615C66.4678 178.615 67.3701 179.582 67.3594 180.699C67.3701 181.58 66.8545 182.235 66.0381 182.461V182.515C67.0479 182.676 67.6709 183.396 67.6602 184.384C67.6709 185.662 66.5 186.607 64.9531 186.607ZM71.4199 178.175C72.8486 178.186 73.8906 179.045 73.8906 180.291C73.8906 181.537 72.8486 182.396 71.4199 182.396C69.9697 182.396 68.9385 181.537 68.9385 180.291C68.9385 179.045 69.9697 178.186 71.4199 178.175ZM71.4199 178.884C70.4639 178.884 69.7549 179.464 69.7656 180.291C69.7549 181.129 70.4639 181.709 71.4199 181.709C72.3652 181.709 73.0742 181.129 73.0742 180.291C73.0742 179.464 72.3652 178.884 71.4199 178.884ZM76.5977 177.82V182.729H75.7598V177.82H76.5977ZM76.5977 183.191V185.49H71.2373V186.564H76.9414V187.241H70.4102V184.856H75.7598V183.868H70.3887V183.191H76.5977Z" fill="#999999"/>
<rect x="88" y="152" width="61" height="61" rx="30.5" stroke="#999999"/>
<path d="M99.6958 178.723V186.5H98.7183V179.732H98.6753L96.7847 180.989V180.012L98.7183 178.723H99.6958ZM104.519 178.723V186.5H103.542V179.732H103.499L101.608 180.989V180.012L103.542 178.723H104.519ZM114.123 177.831V183.46H113.274V182.934H111.34V182.375H113.274V177.831H114.123ZM106.216 181.43C108.064 181.44 110.427 181.419 112.49 181.193L112.543 181.741C111.609 181.875 110.637 181.956 109.686 181.999V183.492H108.859V182.031C107.957 182.063 107.092 182.069 106.313 182.063L106.216 181.43ZM114.123 183.804V185.78H108.547V186.64H114.434V187.263H107.72V185.189H113.285V184.416H107.677V183.804H114.123ZM109.332 178.014C110.75 178.014 111.695 178.572 111.706 179.453C111.695 180.345 110.75 180.882 109.332 180.882C107.892 180.882 106.958 180.345 106.958 179.453C106.958 178.572 107.892 178.014 109.332 178.014ZM109.332 178.604C108.365 178.604 107.742 178.938 107.752 179.453C107.742 179.958 108.365 180.302 109.332 180.302C110.288 180.302 110.911 179.958 110.911 179.453C110.911 178.938 110.288 178.604 109.332 178.604ZM118.86 186.5L118.849 185.791L121.502 182.998C122.426 182.021 122.867 181.494 122.867 180.774C122.867 179.979 122.19 179.453 121.32 179.453C120.396 179.453 119.805 180.044 119.805 180.914H118.892C118.881 179.539 119.945 178.615 121.352 178.615C122.759 178.615 123.769 179.561 123.769 180.774C123.769 181.645 123.361 182.321 121.986 183.739L120.203 185.576V185.641H123.909V186.5H118.86ZM124.951 184.91V184.115L128.453 178.723H129.645V184.062H130.73V184.91H129.645V186.5H128.721V184.91H124.951ZM125.993 184.062H128.721V179.947H128.625L125.993 183.997V184.062ZM134.372 178.175C135.8 178.186 136.842 179.045 136.842 180.291C136.842 181.537 135.8 182.396 134.372 182.396C132.921 182.396 131.89 181.537 131.89 180.291C131.89 179.045 132.921 178.186 134.372 178.175ZM134.372 178.884C133.416 178.884 132.707 179.464 132.717 180.291C132.707 181.129 133.416 181.709 134.372 181.709C135.317 181.709 136.026 181.129 136.026 180.291C136.026 179.464 135.317 178.884 134.372 178.884ZM139.549 177.82V182.729H138.711V177.82H139.549ZM139.549 183.191V185.49H134.189V186.564H139.893V187.241H133.362V184.856H138.711V183.868H133.34V183.191H139.549Z" fill="#999999"/>
<rect x="151" y="152" width="61" height="61" rx="30.5" stroke="#999999"/>
<path d="M162.76 178.723V186.5H161.783V179.732H161.74L159.849 180.989V180.012L161.783 178.723H162.76ZM167.583 178.723V186.5H166.606V179.732H166.563L164.672 180.989V180.012L166.606 178.723H167.583ZM177.187 177.831V183.46H176.338V182.934H174.405V182.375H176.338V177.831H177.187ZM169.281 181.43C171.128 181.44 173.492 181.419 175.554 181.193L175.608 181.741C174.673 181.875 173.701 181.956 172.75 181.999V183.492H171.923V182.031C171.021 182.063 170.156 182.069 169.377 182.063L169.281 181.43ZM177.187 183.804V185.78H171.612V186.64H177.499V187.263H170.785V185.189H176.349V184.416H170.742V183.804H177.187ZM172.396 178.014C173.814 178.014 174.759 178.572 174.77 179.453C174.759 180.345 173.814 180.882 172.396 180.882C170.957 180.882 170.022 180.345 170.022 179.453C170.022 178.572 170.957 178.014 172.396 178.014ZM172.396 178.604C171.429 178.604 170.806 178.938 170.817 179.453C170.806 179.958 171.429 180.302 172.396 180.302C173.352 180.302 173.975 179.958 173.975 179.453C173.975 178.938 173.352 178.604 172.396 178.604ZM181.924 186.5L181.914 185.791L184.567 182.998C185.491 182.021 185.931 181.494 185.931 180.774C185.931 179.979 185.254 179.453 184.384 179.453C183.46 179.453 182.87 180.044 182.87 180.914H181.957C181.946 179.539 183.009 178.615 184.417 178.615C185.824 178.615 186.833 179.561 186.833 180.774C186.833 181.645 186.425 182.321 185.05 183.739L183.267 185.576V185.641H186.973V186.5H181.924ZM190.916 186.607C189.508 186.607 188.445 185.737 188.391 184.545H189.326C189.401 185.243 190.078 185.759 190.916 185.759C191.925 185.759 192.656 185.018 192.656 184.04C192.656 183.03 191.893 182.289 190.851 182.278C190.196 182.268 189.691 182.472 189.401 182.977H188.466L189.014 178.723H193.225V179.582H189.82L189.53 181.859H189.605C189.949 181.591 190.475 181.408 191.023 181.408C192.505 181.408 193.601 182.504 193.601 184.019C193.601 185.522 192.462 186.607 190.916 186.607ZM197.307 178.175C198.736 178.186 199.778 179.045 199.778 180.291C199.778 181.537 198.736 182.396 197.307 182.396C195.857 182.396 194.826 181.537 194.826 180.291C194.826 179.045 195.857 178.186 197.307 178.175ZM197.307 178.884C196.351 178.884 195.642 179.464 195.653 180.291C195.642 181.129 196.351 181.709 197.307 181.709C198.252 181.709 198.961 181.129 198.961 180.291C198.961 179.464 198.252 178.884 197.307 178.884ZM202.485 177.82V182.729H201.647V177.82H202.485ZM202.485 183.191V185.49H197.125V186.564H202.829V187.241H196.297V184.856H201.647V183.868H196.276V183.191H202.485Z" fill="#999999"/>
<rect x="214" y="152" width="61" height="61" rx="30.5" stroke="#999999"/>
<path d="M225.669 178.723V186.5H224.691V179.732H224.648L222.758 180.989V180.012L224.691 178.723H225.669ZM230.492 178.723V186.5H229.515V179.732H229.472L227.581 180.989V180.012L229.515 178.723H230.492ZM240.096 177.831V183.46H239.247V182.934H237.313V182.375H239.247V177.831H240.096ZM232.189 181.43C234.037 181.44 236.4 181.419 238.463 181.193L238.517 181.741C237.582 181.875 236.61 181.956 235.659 181.999V183.492H234.832V182.031C233.93 182.063 233.065 182.069 232.286 182.063L232.189 181.43ZM240.096 183.804V185.78H234.521V186.64H240.407V187.263H233.693V185.189H239.258V184.416H233.65V183.804H240.096ZM235.305 178.014C236.723 178.014 237.668 178.572 237.679 179.453C237.668 180.345 236.723 180.882 235.305 180.882C233.865 180.882 232.931 180.345 232.931 179.453C232.931 178.572 233.865 178.014 235.305 178.014ZM235.305 178.604C234.338 178.604 233.715 178.938 233.726 179.453C233.715 179.958 234.338 180.302 235.305 180.302C236.261 180.302 236.884 179.958 236.884 179.453C236.884 178.938 236.261 178.604 235.305 178.604ZM244.833 186.5L244.822 185.791L247.476 182.998C248.399 182.021 248.84 181.494 248.84 180.774C248.84 179.979 248.163 179.453 247.293 179.453C246.369 179.453 245.778 180.044 245.778 180.914H244.865C244.854 179.539 245.918 178.615 247.325 178.615C248.732 178.615 249.742 179.561 249.742 180.774C249.742 181.645 249.334 182.321 247.959 183.739L246.176 185.576V185.641H249.882V186.5H244.833ZM253.996 186.607C252.643 186.586 251.16 185.791 251.16 182.912C251.16 180.162 252.288 178.615 254.114 178.615C255.479 178.615 256.435 179.453 256.639 180.678H255.683C255.5 179.99 254.984 179.475 254.114 179.475C252.836 179.475 252.073 180.57 252.073 182.439H252.17C252.621 181.795 253.33 181.408 254.168 181.408C255.554 181.408 256.703 182.482 256.703 183.986C256.703 185.447 255.629 186.618 253.996 186.607ZM253.996 185.759C255.006 185.759 255.758 184.964 255.769 183.997C255.758 183.041 255.038 182.257 254.018 182.257C252.997 182.257 252.213 183.084 252.202 184.008C252.202 184.921 252.954 185.759 253.996 185.759ZM260.398 178.175C261.827 178.186 262.869 179.045 262.869 180.291C262.869 181.537 261.827 182.396 260.398 182.396C258.948 182.396 257.917 181.537 257.917 180.291C257.917 179.045 258.948 178.186 260.398 178.175ZM260.398 178.884C259.442 178.884 258.733 179.464 258.744 180.291C258.733 181.129 259.442 181.709 260.398 181.709C261.344 181.709 262.053 181.129 262.053 180.291C262.053 179.464 261.344 178.884 260.398 178.884ZM265.576 177.82V182.729H264.738V177.82H265.576ZM265.576 183.191V185.49H260.216V186.564H265.92V187.241H259.389V184.856H264.738V183.868H259.367V183.191H265.576Z" fill="#999999"/>
</svg>
