<svg width="310" height="240" viewBox="0 0 310 240" fill="none" xmlns="http://www.w3.org/2000/svg">
<mask id="path-1-inside-1_2303_11758" fill="white">
<path d="M0 16C0 7.16344 7.16344 0 16 0H294C302.837 0 310 7.16344 310 16V60H0V16Z"/>
</mask>
<path d="M0 16C0 7.16344 7.16344 0 16 0H294C302.837 0 310 7.16344 310 16V60H0V16Z" fill="#F7F7FB"/>
<path d="M0 0H310H0ZM310 61H0V59H310V61ZM0 60V0V60ZM310 0V60V0Z" fill="#E5E5EC" mask="url(#path-1-inside-1_2303_11758)"/>
<path d="M25.5547 36.1758C22.6016 36.1758 20.8789 33.8027 20.8789 29.6367C20.8789 25.5059 22.6367 23.0977 25.5547 23.0977C28.4727 23.0977 30.2305 25.5059 30.2305 29.6367C30.2305 33.8027 28.4902 36.1758 25.5547 36.1758ZM25.5547 34.5059C27.2773 34.5059 28.2969 32.8184 28.2969 29.6367C28.2969 26.4727 27.2598 24.7324 25.5547 24.7324C23.8496 24.7324 22.8125 26.4727 22.8125 29.6367C22.8125 32.8184 23.832 34.5059 25.5547 34.5059ZM36.2316 36.1758C33.4719 36.1758 31.5383 34.6816 31.5559 32.6074C31.5383 30.9727 32.716 29.6367 34.2102 29.4082V29.3379C32.9094 29.0391 32.0305 27.8789 32.0305 26.4902C32.0305 24.5391 33.8059 23.0977 36.2316 23.0977C38.6398 23.0977 40.3977 24.5391 40.4152 26.4902C40.3977 27.8789 39.5188 29.0391 38.2355 29.3379V29.4082C39.7121 29.6367 40.8898 30.9727 40.9074 32.6074C40.8898 34.6816 38.9563 36.1758 36.2316 36.1758ZM36.2316 34.5762C37.884 34.5762 38.9387 33.7148 38.9387 32.4668C38.9387 31.1484 37.7961 30.1992 36.2316 30.1992C34.6496 30.1992 33.4895 31.1484 33.5246 32.4668C33.4895 33.7148 34.5441 34.5762 36.2316 34.5762ZM36.2316 28.6699C37.5676 28.6699 38.5168 27.8613 38.5168 26.666C38.5168 25.4883 37.5852 24.6797 36.2316 24.6797C34.8254 24.6797 33.9113 25.4707 33.9113 26.666C33.9113 27.8613 34.8781 28.6699 36.2316 28.6699ZM43.7094 34.3652C43.0238 34.3652 42.4438 33.8027 42.4613 33.1172C42.4438 32.4316 43.0238 31.8691 43.7094 31.8691C44.3773 31.8691 44.9574 32.4316 44.9574 33.1172C44.9574 33.8027 44.3773 34.3652 43.7094 34.3652ZM43.7094 27.4219C43.0238 27.4219 42.4438 26.8594 42.4613 26.1738C42.4438 25.4883 43.0238 24.9258 43.7094 24.9258C44.3773 24.9258 44.9574 25.4883 44.9574 26.1738C44.9574 26.8594 44.3773 27.4219 43.7094 27.4219ZM51.1871 36.1758C48.234 36.1758 46.5113 33.8027 46.5113 29.6367C46.5113 25.5059 48.2691 23.0977 51.1871 23.0977C54.1051 23.0977 55.8629 25.5059 55.8629 29.6367C55.8629 33.8027 54.1227 36.1758 51.1871 36.1758ZM51.1871 34.5059C52.9098 34.5059 53.9293 32.8184 53.9293 29.6367C53.9293 26.4727 52.8922 24.7324 51.1871 24.7324C49.482 24.7324 48.4449 26.4727 48.4449 29.6367C48.4449 32.8184 49.4645 34.5059 51.1871 34.5059ZM61.8465 36.1758C58.8934 36.1758 57.1707 33.8027 57.1707 29.6367C57.1707 25.5059 58.9285 23.0977 61.8465 23.0977C64.7645 23.0977 66.5223 25.5059 66.5223 29.6367C66.5223 33.8027 64.782 36.1758 61.8465 36.1758ZM61.8465 34.5059C63.5691 34.5059 64.5887 32.8184 64.5887 29.6367C64.5887 26.4727 63.5516 24.7324 61.8465 24.7324C60.1414 24.7324 59.1043 26.4727 59.1043 29.6367C59.1043 32.8184 60.1238 34.5059 61.8465 34.5059Z" fill="#111111"/>
<path d="M231 39C235.971 39 240 34.9706 240 30C240 25.0294 235.971 21 231 21C226.029 21 222 25.0294 222 30C222 34.9706 226.029 39 231 39Z" stroke="#111111" stroke-width="1.5" stroke-linejoin="round"/>
<path d="M228 30L230 32L234 28" stroke="#111111" stroke-width="1.5" stroke-linecap="round" stroke-linejoin="round"/>
<path d="M269.871 28.7578V29.8301H263.42V31.2891H268.043V34.6641H258.762V36.1934H268.518V37.248H257.391V33.6797H266.689V32.3262H257.355V31.2891H262.066V29.8301H255.65V28.7578H269.871ZM263.42 21.709V23.168H268.43V24.2578H263.525C263.78 25.8135 266.224 26.7979 269.098 26.9824L268.676 28.0371C266.065 27.8174 263.71 27.0088 262.752 25.5234C261.794 27.0088 259.438 27.8174 256.811 28.0371L256.406 26.9824C259.263 26.7979 261.706 25.8135 261.979 24.2578H257.109V23.168H262.066V21.709H263.42ZM283.167 22.7461V23.959C283.167 25.2686 283.167 26.8594 282.763 28.9863H285.048V30.1465H270.739V28.9863H281.374C281.796 26.8242 281.796 25.2949 281.796 23.959V23.8711H272.55V22.7461H283.167ZM283.642 35.9121V37.0723H272.638V31.9043H274.009V35.9121H283.642Z" fill="#111111"/>
<mask id="path-7-inside-2_2303_11758" fill="white">
<path d="M0 60H310V120H0V60Z"/>
</mask>
<path d="M0 60H310V120H0V60Z" fill="#F7F7FB"/>
<path d="M310 119H0V121H310V119Z" fill="#E5E5EC" mask="url(#path-7-inside-2_2303_11758)"/>
<path d="M25.959 83.2734V96H24.0078V85.207H23.9375L20.8965 87.1934V85.3477L24.0605 83.2734H25.959ZM28.7434 96V94.5938L33.1555 90.1465C34.5441 88.6875 35.2473 87.8789 35.2473 86.7715C35.2473 85.5234 34.2277 84.7148 32.8918 84.7148C31.4855 84.7148 30.5715 85.6113 30.5715 86.9648H28.7434C28.7258 84.6445 30.5012 83.0977 32.927 83.0977C35.3879 83.0977 37.0754 84.6445 37.093 86.7188C37.0754 88.1426 36.4074 89.2676 34.0168 91.623L31.4328 94.2422V94.3477H37.3039V96H28.7434ZM40.2465 94.3652C39.5609 94.3652 38.9809 93.8027 38.9984 93.1172C38.9809 92.4316 39.5609 91.8691 40.2465 91.8691C40.9145 91.8691 41.4945 92.4316 41.4945 93.1172C41.4945 93.8027 40.9145 94.3652 40.2465 94.3652ZM40.2465 87.4219C39.5609 87.4219 38.9809 86.8594 38.9984 86.1738C38.9809 85.4883 39.5609 84.9258 40.2465 84.9258C40.9145 84.9258 41.4945 85.4883 41.4945 86.1738C41.4945 86.8594 40.9145 87.4219 40.2465 87.4219ZM47.7242 96.1758C44.7711 96.1758 43.0484 93.8027 43.0484 89.6367C43.0484 85.5059 44.8062 83.0977 47.7242 83.0977C50.6422 83.0977 52.4 85.5059 52.4 89.6367C52.4 93.8027 50.6598 96.1758 47.7242 96.1758ZM47.7242 94.5059C49.4469 94.5059 50.4664 92.8184 50.4664 89.6367C50.4664 86.4727 49.4293 84.7324 47.7242 84.7324C46.0191 84.7324 44.982 86.4727 44.982 89.6367C44.982 92.8184 46.0016 94.5059 47.7242 94.5059ZM58.3836 96.1758C55.4305 96.1758 53.7078 93.8027 53.7078 89.6367C53.7078 85.5059 55.4656 83.0977 58.3836 83.0977C61.3016 83.0977 63.0594 85.5059 63.0594 89.6367C63.0594 93.8027 61.3191 96.1758 58.3836 96.1758ZM58.3836 94.5059C60.1063 94.5059 61.1258 92.8184 61.1258 89.6367C61.1258 86.4727 60.0887 84.7324 58.3836 84.7324C56.6785 84.7324 55.6414 86.4727 55.6414 89.6367C55.6414 92.8184 56.6609 94.5059 58.3836 94.5059ZM69.1203 89.3027C69.7004 88.6523 70.4211 88.3184 71.2121 88.3184C72.5832 88.3184 73.7961 89.3203 75.132 89.3203C75.9406 89.3203 76.6437 88.9688 77.1887 88.2656V89.9531C76.591 90.6035 75.8879 90.9375 75.0969 90.9375C73.7258 90.9375 72.4953 89.9355 71.1594 89.9355C70.3684 89.9355 69.6828 90.2871 69.1203 90.9902V89.3027ZM88.3297 83.2734V96H86.3785V85.207H86.3082L83.2672 87.1934V85.3477L86.4313 83.2734H88.3297ZM95.6316 96.1758C92.9949 96.1758 91.1141 94.752 91.0437 92.6777H93.0125C93.0828 93.8027 94.1902 94.5059 95.6141 94.5059C97.1434 94.5059 98.2684 93.6621 98.2684 92.4316C98.2684 91.1836 97.2137 90.2695 95.4031 90.2695H94.3133V88.6875H95.4031C96.8445 88.6875 97.8641 87.8789 97.8641 86.666C97.8641 85.5059 97.0027 84.7148 95.6492 84.7148C94.366 84.7148 93.241 85.418 93.1883 86.5781H91.325C91.3777 84.5039 93.2937 83.0977 95.6668 83.0977C98.1629 83.0977 99.7449 84.6797 99.7273 86.5605C99.7449 88.002 98.8484 89.0566 97.4773 89.3906V89.4785C99.2176 89.7246 100.22 90.8848 100.22 92.502C100.22 94.6289 98.2684 96.1758 95.6316 96.1758ZM103.145 94.3652C102.459 94.3652 101.879 93.8027 101.896 93.1172C101.879 92.4316 102.459 91.8691 103.145 91.8691C103.812 91.8691 104.393 92.4316 104.393 93.1172C104.393 93.8027 103.812 94.3652 103.145 94.3652ZM103.145 87.4219C102.459 87.4219 101.879 86.8594 101.896 86.1738C101.879 85.4883 102.459 84.9258 103.145 84.9258C103.812 84.9258 104.393 85.4883 104.393 86.1738C104.393 86.8594 103.812 87.4219 103.145 87.4219ZM110.622 96.1758C107.669 96.1758 105.946 93.8027 105.946 89.6367C105.946 85.5059 107.704 83.0977 110.622 83.0977C113.54 83.0977 115.298 85.5059 115.298 89.6367C115.298 93.8027 113.558 96.1758 110.622 96.1758ZM110.622 94.5059C112.345 94.5059 113.364 92.8184 113.364 89.6367C113.364 86.4727 112.327 84.7324 110.622 84.7324C108.917 84.7324 107.88 86.4727 107.88 89.6367C107.88 92.8184 108.9 94.5059 110.622 94.5059ZM121.282 96.1758C118.329 96.1758 116.606 93.8027 116.606 89.6367C116.606 85.5059 118.364 83.0977 121.282 83.0977C124.2 83.0977 125.957 85.5059 125.957 89.6367C125.957 93.8027 124.217 96.1758 121.282 96.1758ZM121.282 94.5059C123.004 94.5059 124.024 92.8184 124.024 89.6367C124.024 86.4727 122.987 84.7324 121.282 84.7324C119.577 84.7324 118.539 86.4727 118.539 89.6367C118.539 92.8184 119.559 94.5059 121.282 94.5059Z" fill="#111111"/>
<path d="M205 99C209.971 99 214 94.9706 214 90C214 85.0294 209.971 81 205 81C200.029 81 196 85.0294 196 90C196 94.9706 200.029 99 205 99Z" stroke="#111111" stroke-width="1.5" stroke-linejoin="round"/>
<path d="M202 90L204 92L208 88" stroke="#111111" stroke-width="1.5" stroke-linecap="round" stroke-linejoin="round"/>
<path d="M242.588 81.7969V90.9551H241.199V86.877H238.035V85.7168H241.199V81.7969H242.588ZM242.588 91.7285V97.2129H232.375V91.7285H242.588ZM233.746 92.8359V96.0879H241.234V92.8359H233.746ZM235.064 84.5742C235.064 86.5957 236.629 88.5469 238.914 89.3555L238.193 90.4453C236.427 89.8125 235.064 88.4941 234.396 86.877C233.72 88.6787 232.278 90.1201 230.424 90.7969L229.703 89.707C232.006 88.8809 233.676 86.8066 233.676 84.5742V83.959H230.143V82.8164H238.562V83.959H235.064V84.5742ZM257.642 81.8145V90.6914H256.271V81.8145H257.642ZM257.642 91.5879V97.2129H247.482V91.5879H257.642ZM248.835 92.7129V96.0879H256.288V92.7129H248.835ZM250.277 83.959C250.259 86.1738 251.946 88.125 254.249 88.9336L253.546 89.9883C251.736 89.3643 250.294 88.0459 249.591 86.332C248.897 88.1602 247.438 89.6016 245.566 90.2871L244.863 89.1973C247.236 88.3711 248.87 86.2617 248.87 83.959V82.4297H250.277V83.959ZM265.383 84.0645C265.366 86.3496 267.018 88.3711 269.338 89.1797L268.635 90.2695C266.825 89.6104 265.392 88.2568 264.698 86.5254C264.003 88.3799 262.553 89.8389 260.725 90.5508L260.004 89.4609C262.342 88.5996 263.977 86.4199 263.977 84.0645V82.5703H265.383V84.0645ZM272.748 91.9922V97.4238H271.377V93.1348H262.237V91.9922H272.748ZM272.748 81.7969V91.2188H271.377V81.7969H272.748ZM280.191 85.998C280.191 88.7578 282.019 91.5879 284.234 92.6777L283.39 93.7852C281.668 92.8799 280.226 91.0342 279.541 88.8633C278.838 91.1748 277.361 93.1436 275.603 94.084L274.724 92.9766C277.009 91.8516 278.82 88.8457 278.838 85.998V83.1504H280.191V85.998ZM287.046 81.7969V88.1426H289.666V89.3379H287.046V97.4238H285.675V81.7969H287.046Z" fill="#111111"/>
<mask id="path-13-inside-3_2303_11758" fill="white">
<path d="M0 120H310V180H0V120Z"/>
</mask>
<path d="M0 120H310V180H0V120Z" fill="#0066FF" fill-opacity="0.1"/>
<path d="M310 179H0V181H310V179Z" fill="#0066FF" mask="url(#path-13-inside-3_2303_11758)"/>
<path d="M25.959 143.273V156H24.0078V145.207H23.9375L20.8965 147.193V145.348L24.0605 143.273H25.959ZM33.0676 156.176C30.6594 156.176 28.8488 154.699 28.7609 152.678H30.6418C30.7473 153.768 31.7844 154.559 33.0676 154.559C34.6145 154.559 35.7219 153.434 35.7219 151.922C35.7219 150.375 34.5793 149.25 32.9797 149.232C31.9602 149.232 31.1867 149.566 30.7473 150.357H28.9191L29.7453 143.273H36.9523V144.926H31.3449L30.923 148.494H31.0461C31.5734 147.984 32.4699 147.633 33.4367 147.633C35.8273 147.633 37.6027 149.408 37.6027 151.869C37.6027 154.383 35.7219 156.176 33.0676 156.176ZM40.4574 154.365C39.7719 154.365 39.1918 153.803 39.2094 153.117C39.1918 152.432 39.7719 151.869 40.4574 151.869C41.1254 151.869 41.7055 152.432 41.7055 153.117C41.7055 153.803 41.1254 154.365 40.4574 154.365ZM40.4574 147.422C39.7719 147.422 39.1918 146.859 39.2094 146.174C39.1918 145.488 39.7719 144.926 40.4574 144.926C41.1254 144.926 41.7055 145.488 41.7055 146.174C41.7055 146.859 41.1254 147.422 40.4574 147.422ZM47.9352 156.176C44.982 156.176 43.2594 153.803 43.2594 149.637C43.2594 145.506 45.0172 143.098 47.9352 143.098C50.8531 143.098 52.6109 145.506 52.6109 149.637C52.6109 153.803 50.8707 156.176 47.9352 156.176ZM47.9352 154.506C49.6578 154.506 50.6773 152.818 50.6773 149.637C50.6773 146.473 49.6402 144.732 47.9352 144.732C46.2301 144.732 45.193 146.473 45.193 149.637C45.193 152.818 46.2125 154.506 47.9352 154.506ZM58.5945 156.176C55.6414 156.176 53.9188 153.803 53.9188 149.637C53.9188 145.506 55.6766 143.098 58.5945 143.098C61.5125 143.098 63.2703 145.506 63.2703 149.637C63.2703 153.803 61.5301 156.176 58.5945 156.176ZM58.5945 154.506C60.3172 154.506 61.3367 152.818 61.3367 149.637C61.3367 146.473 60.2996 144.732 58.5945 144.732C56.8895 144.732 55.8523 146.473 55.8523 149.637C55.8523 152.818 56.8719 154.506 58.5945 154.506ZM69.3312 149.303C69.9113 148.652 70.632 148.318 71.423 148.318C72.7941 148.318 74.007 149.32 75.343 149.32C76.1516 149.32 76.8547 148.969 77.3996 148.266V149.953C76.802 150.604 76.0988 150.938 75.3078 150.938C73.9367 150.938 72.7062 149.936 71.3703 149.936C70.5793 149.936 69.8937 150.287 69.3312 150.99V149.303ZM88.5406 143.273V156H86.5895V145.207H86.5191L83.4781 147.193V145.348L86.6422 143.273H88.5406ZM95.9305 156.176C93.575 156.158 91.1141 154.77 91.1141 150.059C91.1141 145.629 93.0301 143.098 96.0887 143.098C98.4266 143.098 100.061 144.557 100.36 146.578H98.4441C98.198 145.541 97.3719 144.785 96.0887 144.785C94.1199 144.785 92.9773 146.508 92.9773 149.373H93.118C93.8035 148.301 94.9988 147.65 96.3875 147.65C98.6551 147.65 100.483 149.391 100.483 151.834C100.483 154.295 98.6727 156.193 95.9305 156.176ZM95.9129 154.559C97.4598 154.559 98.6023 153.363 98.6023 151.869C98.6023 150.41 97.4949 149.232 95.9656 149.232C94.4012 149.232 93.2234 150.463 93.2059 151.887C93.2234 153.293 94.3484 154.559 95.9129 154.559ZM103.338 154.365C102.652 154.365 102.072 153.803 102.09 153.117C102.072 152.432 102.652 151.869 103.338 151.869C104.006 151.869 104.586 152.432 104.586 153.117C104.586 153.803 104.006 154.365 103.338 154.365ZM103.338 147.422C102.652 147.422 102.072 146.859 102.09 146.174C102.072 145.488 102.652 144.926 103.338 144.926C104.006 144.926 104.586 145.488 104.586 146.174C104.586 146.859 104.006 147.422 103.338 147.422ZM110.816 156.176C107.863 156.176 106.14 153.803 106.14 149.637C106.14 145.506 107.898 143.098 110.816 143.098C113.734 143.098 115.491 145.506 115.491 149.637C115.491 153.803 113.751 156.176 110.816 156.176ZM110.816 154.506C112.538 154.506 113.558 152.818 113.558 149.637C113.558 146.473 112.521 144.732 110.816 144.732C109.111 144.732 108.073 146.473 108.073 149.637C108.073 152.818 109.093 154.506 110.816 154.506ZM121.475 156.176C118.522 156.176 116.799 153.803 116.799 149.637C116.799 145.506 118.557 143.098 121.475 143.098C124.393 143.098 126.151 145.506 126.151 149.637C126.151 153.803 124.411 156.176 121.475 156.176ZM121.475 154.506C123.198 154.506 124.217 152.818 124.217 149.637C124.217 146.473 123.18 144.732 121.475 144.732C119.77 144.732 118.733 146.473 118.733 149.637C118.733 152.818 119.752 154.506 121.475 154.506Z" fill="black"/>
<path d="M264.889 144.75C264.871 146.895 266.506 148.881 268.809 149.689L268.105 150.797C266.33 150.155 264.95 148.828 264.256 147.158C263.597 149.03 262.182 150.472 260.336 151.184L259.58 150.076C261.953 149.232 263.518 147.123 263.535 144.697V142.764H264.889V144.75ZM271.85 141.797V146.596H274.205V147.773H271.85V153.346H270.479V141.797H271.85ZM272.57 155.93V157.09H262.094V152.238H263.5V155.93H272.57ZM279.363 145.189C279.363 147.035 280.593 148.846 282.579 149.566L281.911 150.639C280.382 150.032 279.301 148.863 278.747 147.439C278.202 148.986 277.104 150.261 275.548 150.92L274.863 149.883C276.849 149.057 278.044 147.176 278.062 145.189V144.996H275.179V143.871H278.062V141.99H279.363V143.871H282.193V144.996H279.363V145.189ZM288.011 141.814V151.377H286.693V147.141H284.654V151.307H283.318V142.096H284.654V145.998H286.693V141.814H288.011ZM288.011 152.221V157.424H286.657V153.346H277.482V152.221H288.011Z" fill="#111111"/>
<mask id="path-17-inside-4_2303_11758" fill="white">
<path d="M0 180H310V224C310 232.837 302.837 240 294 240H16C7.16345 240 0 232.837 0 224V180Z"/>
</mask>
<path d="M0 180H310V224C310 232.837 302.837 240 294 240H16C7.16345 240 0 232.837 0 224V180Z" fill="white"/>
<path d="M0 180H310H0ZM310 224C310 233.389 302.389 241 293 241H17C7.61116 241 0 233.389 0 224C0 232.284 7.16344 239 16 239H294C302.837 239 310 232.284 310 224ZM0 240V180V240ZM310 180V240V180Z" fill="#E5E5EC" mask="url(#path-17-inside-4_2303_11758)"/>
<path d="M21.125 216V214.594L25.5371 210.146C26.9258 208.688 27.6289 207.879 27.6289 206.771C27.6289 205.523 26.6094 204.715 25.2734 204.715C23.8672 204.715 22.9531 205.611 22.9531 206.965H21.125C21.1074 204.645 22.8828 203.098 25.3086 203.098C27.7695 203.098 29.457 204.645 29.4746 206.719C29.457 208.143 28.7891 209.268 26.3984 211.623L23.8145 214.242V214.348H29.6855V216H21.125ZM31.3801 216V214.594L35.7922 210.146C37.1809 208.688 37.884 207.879 37.884 206.771C37.884 205.523 36.8645 204.715 35.5285 204.715C34.1223 204.715 33.2082 205.611 33.2082 206.965H31.3801C31.3625 204.645 33.1379 203.098 35.5637 203.098C38.0246 203.098 39.7121 204.645 39.7297 206.719C39.7121 208.143 39.0441 209.268 36.6535 211.623L34.0695 214.242V214.348H39.9406V216H31.3801ZM42.8832 214.365C42.1977 214.365 41.6176 213.803 41.6352 213.117C41.6176 212.432 42.1977 211.869 42.8832 211.869C43.5512 211.869 44.1313 212.432 44.1313 213.117C44.1313 213.803 43.5512 214.365 42.8832 214.365ZM42.8832 207.422C42.1977 207.422 41.6176 206.859 41.6352 206.174C41.6176 205.488 42.1977 204.926 42.8832 204.926C43.5512 204.926 44.1313 205.488 44.1313 206.174C44.1313 206.859 43.5512 207.422 42.8832 207.422ZM50.3609 216.176C47.4078 216.176 45.6852 213.803 45.6852 209.637C45.6852 205.506 47.443 203.098 50.3609 203.098C53.2789 203.098 55.0367 205.506 55.0367 209.637C55.0367 213.803 53.2965 216.176 50.3609 216.176ZM50.3609 214.506C52.0836 214.506 53.1031 212.818 53.1031 209.637C53.1031 206.473 52.066 204.732 50.3609 204.732C48.6559 204.732 47.6187 206.473 47.6187 209.637C47.6187 212.818 48.6383 214.506 50.3609 214.506ZM61.0203 216.176C58.0672 216.176 56.3445 213.803 56.3445 209.637C56.3445 205.506 58.1023 203.098 61.0203 203.098C63.9383 203.098 65.6961 205.506 65.6961 209.637C65.6961 213.803 63.9559 216.176 61.0203 216.176ZM61.0203 214.506C62.743 214.506 63.7625 212.818 63.7625 209.637C63.7625 206.473 62.7254 204.732 61.0203 204.732C59.3152 204.732 58.2781 206.473 58.2781 209.637C58.2781 212.818 59.2977 214.506 61.0203 214.506Z" fill="black"/>
<path d="M269.107 209.338V210.463H265.574V212.994C267.077 212.924 268.606 212.801 270.039 212.59L270.145 213.609C266.576 214.26 262.727 214.26 259.914 214.277L259.721 213.117C261.03 213.108 262.577 213.108 264.203 213.047V210.463H260.916V203.221H269.037V204.346H262.305V206.262H268.703V207.352H262.305V209.338H269.107ZM272.447 201.797V217.459H271.076V201.797H272.447ZM287.167 202.746V203.959C287.167 205.269 287.167 206.859 286.763 208.986H289.048V210.146H274.739V208.986H285.374C285.796 206.824 285.796 205.295 285.796 203.959V203.871H276.55V202.746H287.167ZM287.642 215.912V217.072H276.638V211.904H278.009V215.912H287.642Z" fill="#767676"/>
</svg>
