<svg width="30" height="33" viewBox="0 0 30 33" fill="none" xmlns="http://www.w3.org/2000/svg">
<path d="M18.9679 7.49999H0.921653C0.416239 7.49999 0 7.08415 0 6.5792V1.08412C0 0.579166 0.416239 0.16333 0.921653 0.16333H13.9583C14.2111 0.16333 14.4638 0.267286 14.6273 0.460357L19.6368 5.95543C20.172 6.54949 19.7558 7.48514 18.9679 7.48514V7.49999Z" fill="white"/>
<path d="M20.9006 19.5446V0.920789C20.9006 0.415836 21.3169 0 21.8223 0H27.3075C27.8129 0 28.2291 0.415836 28.2291 0.920789V14.5248C28.2291 14.7773 28.1251 15.0298 27.9318 15.208L22.4466 20.2278C21.852 20.7625 20.9155 20.3466 20.9155 19.5446H20.9006Z" fill="white"/>
<path d="M21.807 32.6879L8.36889 17.8512C7.83375 17.2572 8.24998 16.3215 9.0527 16.3215H15.6379C15.8906 16.3215 16.1434 16.4255 16.3217 16.6186L29.7598 31.4553C30.2949 32.0493 29.8787 32.985 29.076 32.985H22.4908C22.238 32.985 21.9854 32.881 21.807 32.6879Z" fill="white"/>
<path d="M0.0148796 32.0791V15.3265C0.0148796 15.1038 0.104076 14.881 0.252727 14.7028L5.73794 8.73245C6.30281 8.12354 7.32851 8.52453 7.32851 9.35621V32.0791C7.32851 32.584 6.9123 32.9999 6.40688 32.9999H0.921653C0.416239 32.9999 0 32.584 0 32.0791H0.0148796Z" fill="white"/>
</svg>
