<svg width="24" height="21" viewBox="0 0 24 21" fill="none" xmlns="http://www.w3.org/2000/svg">
<g clip-path="url(#clip0_1253_5998)">
<path d="M4.2624 11.0387C4.57996 16.8304 10.9065 20.2142 15.9162 17.3132C16.6213 16.9045 17.1217 16.2823 17.7168 15.8985C18.8016 15.1982 20.1118 16.2762 19.6402 17.5031C19.4314 18.0459 18.1191 19.0223 17.6007 19.3502C14.0048 21.6249 9.53221 21.5542 6.04369 19.1078C3.40912 17.2607 1.8133 14.2803 1.5878 11.0468C0.768543 11.1155 -0.221505 10.9922 0.0453543 9.91213L2.29831 5.99171C2.67125 5.58499 3.29503 5.62876 3.58524 6.10147L5.78283 10.0111C5.94495 11.0333 5.0403 11.108 4.26373 11.0394L4.2624 11.0387Z" fill="#0066FF"/>
<path d="M22.4162 9.95389C23.1594 9.90405 24.1495 9.97072 23.9814 10.9747L21.7064 15.0089C21.3341 15.4163 20.7057 15.3719 20.4201 14.8985L18.2105 10.9337C18.1045 9.94109 18.9984 9.90338 19.7416 9.96197C19.3834 3.82883 12.4497 0.527251 7.44409 4.11569C7.00444 4.43083 6.33662 5.18636 5.86828 5.28535C4.81219 5.50824 3.97625 4.50221 4.36386 3.4982C4.57402 2.95478 5.8843 1.97973 6.40334 1.65112C9.9986 -0.622881 14.4712 -0.552176 17.9604 1.89354C20.5976 3.74264 22.1801 6.72369 22.4162 9.95456V9.95389Z" fill="#0066FF"/>
</g>
<defs>
<clipPath id="clip0_1253_5998">
<rect width="24" height="21" fill="white"/>
</clipPath>
</defs>
</svg>
