<svg width="62" height="62" viewBox="0 0 62 62" fill="none" xmlns="http://www.w3.org/2000/svg">
<path fill-rule="evenodd" clip-rule="evenodd" d="M35.5613 0.333214C34.0727 0.113701 32.5496 0 31 0C17.8968 0 6.69235 8.12961 2.15537 19.6201L35.5613 0.333214ZM0.100021 33.5085C0.0337658 32.681 0 31.8445 0 31C0 29.0061 0.188247 27.0561 0.547939 25.167L41.1776 1.70939C43.8438 2.6357 46.3445 3.91576 48.6235 5.49341L0.100021 33.5085ZM3.08084 44.4893C2.05457 42.3691 1.26269 40.1143 0.738879 37.7585L51.9777 8.17575C53.729 9.78615 55.2944 11.5955 56.6381 13.568L3.08084 44.4893ZM9.59901 53.4277C7.88442 51.7911 6.35721 49.9599 5.05284 47.9695L58.6723 17.0123C59.7337 19.1079 60.5641 21.3405 61.1299 23.6763L9.59901 53.4277ZM20.139 60.0441C17.5342 59.0696 15.0956 57.7548 12.8773 56.1537L61.8452 27.8821C61.9476 28.9075 62 29.9476 62 31C62 32.7435 61.8561 34.4534 61.5794 36.1184L20.139 60.0441ZM42.7237 59.7065C39.1071 61.185 35.1487 62 31 62C29.1481 62 27.3342 61.8376 25.5716 61.5263L60.1551 41.5596C58.135 47.1358 54.5608 51.9674 49.9557 55.5311L42.7237 59.7065Z" fill="white" fill-opacity="0.1"/>
<rect x="1" y="1" width="60" height="60" rx="30" stroke="#04B014" stroke-width="2"/>
<path d="M25.6665 22.6667L29.6665 26L36.3332 18" stroke="#04B014" stroke-linecap="round" stroke-linejoin="round"/>
<path d="M23.7738 34.1484C25.4496 34.1484 26.643 35.0752 26.6557 36.459C26.643 37.5952 25.786 38.4521 24.5102 38.6934V39.6201C25.4623 39.5693 26.4208 39.4805 27.3158 39.3535L27.4301 40.3818C25.0434 40.8135 22.3773 40.8516 20.435 40.8516L20.2826 39.7217C21.1078 39.728 22.0727 39.7217 23.0883 39.6836V38.6934C21.7743 38.4775 20.892 37.6143 20.9047 36.459C20.892 35.0752 22.0854 34.1484 23.7738 34.1484ZM23.7738 35.2275C22.8598 35.2275 22.2123 35.6846 22.225 36.459C22.2123 37.208 22.8598 37.6777 23.7738 37.6904C24.6879 37.6777 25.31 37.208 25.3227 36.459C25.31 35.6846 24.6879 35.2275 23.7738 35.2275ZM29.3979 33.666V37.373H30.9467V38.541H29.3979V42.4258H27.9887V33.666H29.3979ZM29.8041 43.7461V44.8887H21.8568V41.6514H23.266V43.7461H29.8041ZM41.7047 42.6289V43.7969H31.2184V42.6289H33.9986V40.7373H32.4625V36.9922H39.0641V35.583H32.4371V34.4404H40.4605V38.1221H33.8717V39.5947H40.7271V40.7373H39.0514V42.6289H41.7047ZM35.3697 42.6289H37.6676V40.7373H35.3697V42.6289Z" fill="white"/>
</svg>
