<svg width="62" height="62" viewBox="0 0 62 62" fill="none" xmlns="http://www.w3.org/2000/svg">
<path fill-rule="evenodd" clip-rule="evenodd" d="M35.5613 0.333214C34.0727 0.113701 32.5496 0 31 0C17.8968 0 6.69235 8.12961 2.15537 19.6201L35.5613 0.333214ZM0.100021 33.5085C0.0337658 32.681 0 31.8445 0 31C0 29.0061 0.188247 27.0561 0.547939 25.167L41.1776 1.70939C43.8438 2.6357 46.3445 3.91576 48.6235 5.49341L0.100021 33.5085ZM3.08084 44.4893C2.05457 42.3691 1.26269 40.1143 0.738879 37.7585L51.9777 8.17575C53.729 9.78615 55.2944 11.5955 56.6381 13.568L3.08084 44.4893ZM9.59901 53.4277C7.88442 51.7911 6.35721 49.9599 5.05284 47.9695L58.6723 17.0123C59.7337 19.1079 60.5641 21.3405 61.1299 23.6763L9.59901 53.4277ZM20.139 60.0441C17.5342 59.0696 15.0956 57.7548 12.8773 56.1537L61.8452 27.8821C61.9476 28.9075 62 29.9476 62 31C62 32.7435 61.8561 34.4534 61.5794 36.1184L20.139 60.0441ZM42.7237 59.7065C39.1071 61.185 35.1487 62 31 62C29.1481 62 27.3342 61.8376 25.5716 61.5263L60.1551 41.5596C58.135 47.1358 54.5608 51.9674 49.9557 55.5311L42.7237 59.7065Z" fill="white" fill-opacity="0.1"/>
<rect x="1" y="1" width="60" height="60" rx="30" stroke="#FFAA00" stroke-width="2"/>
<path d="M30.567 15.75C30.7594 15.4167 31.2406 15.4167 31.433 15.75L36.6292 24.75C36.8216 25.0833 36.5811 25.5 36.1962 25.5H25.8038C25.4189 25.5 25.1784 25.0833 25.3708 24.75L30.567 15.75Z" stroke="#FFAA00"/>
<path d="M18.7287 38.6934V39.8359H15.3391V42.6162H19.884V43.7588H9.39766V42.6162H13.9172V39.8359H10.6037V34.5674H12.051V38.6934H18.7287ZM25.7924 34.3389V37.792H22.1742V39.2012C24.015 39.2075 25.0751 39.1504 26.2875 38.9219L26.4271 40.0645C25.0561 40.293 23.8627 40.3311 21.6156 40.3311H20.7777V36.7383H24.3832V35.4561H20.7523V34.3389H25.7924ZM29.9184 33.666V40.7246H28.5092V38.833H26.4779V37.7031H28.5092V36.4209H26.4779V35.291H28.5092V33.666H29.9184ZM29.9184 41.2705V45.1299H28.5092V42.4004H22.0727V41.2705H29.9184ZM40.7906 33.6533V39.5693H39.3814V33.6533H40.7906ZM40.7906 40.0518V43.0098H34.5191V43.9111H41.1588V45.0283H33.1227V41.9814H39.3941V41.1562H33.0973V40.0518H40.7906ZM37.9469 34.3896V35.4814H36.9186V37.9824C37.4391 37.938 37.9469 37.8872 38.4293 37.8301L38.4928 38.8457C36.2076 39.2012 33.567 39.2773 31.5611 39.2773L31.4088 38.1602L32.7164 38.1475V35.4814H31.7135V34.3896H37.9469ZM34.0748 38.1221C34.5699 38.1094 35.0714 38.0903 35.5729 38.0586V35.4814H34.0748V38.1221ZM52.615 42.5781V43.7334H42.1287V42.5781H44.5535V39.6709C43.6395 39.1504 43.0872 38.3315 43.0936 37.3096C43.0809 35.4814 44.8836 34.2754 47.3465 34.2754C49.8221 34.2754 51.6248 35.4814 51.6248 37.3096C51.6248 38.3125 51.0916 39.1187 50.2029 39.6455V42.5781H52.615ZM47.3465 35.3926C45.6326 35.3926 44.4646 36.1162 44.4773 37.3096C44.4646 38.4902 45.6326 39.2266 47.3465 39.2266C49.0604 39.2266 50.241 38.4902 50.241 37.3096C50.241 36.1162 49.0604 35.3926 47.3465 35.3926ZM45.95 42.5781H48.7684V40.1787C48.3304 40.2803 47.8543 40.3311 47.3465 40.3311C46.8514 40.3311 46.3816 40.2803 45.95 40.1914V42.5781Z" fill="white"/>
</svg>
