<svg width="62" height="62" viewBox="0 0 62 62" fill="none" xmlns="http://www.w3.org/2000/svg">
<path fill-rule="evenodd" clip-rule="evenodd" d="M35.5613 0.333214C34.0727 0.113701 32.5496 0 31 0C17.8968 0 6.69235 8.12961 2.15537 19.6201L35.5613 0.333214ZM0.100021 33.5085C0.0337658 32.681 0 31.8445 0 31C0 29.0061 0.188247 27.0561 0.547939 25.167L41.1776 1.70939C43.8438 2.6357 46.3445 3.91576 48.6235 5.49341L0.100021 33.5085ZM3.08084 44.4893C2.05457 42.3691 1.26269 40.1143 0.738879 37.7585L51.9777 8.17575C53.729 9.78615 55.2944 11.5955 56.6381 13.568L3.08084 44.4893ZM9.59901 53.4277C7.88442 51.7911 6.35721 49.9599 5.05284 47.9695L58.6723 17.0123C59.7337 19.1079 60.5641 21.3405 61.1299 23.6763L9.59901 53.4277ZM20.139 60.0441C17.5342 59.0696 15.0956 57.7548 12.8773 56.1537L61.8452 27.8821C61.9476 28.9075 62 29.9476 62 31C62 32.7435 61.8561 34.4534 61.5794 36.1184L20.139 60.0441ZM42.7237 59.7065C39.1071 61.185 35.1487 62 31 62C29.1481 62 27.3342 61.8376 25.5716 61.5263L60.1551 41.5596C58.135 47.1358 54.5608 51.9674 49.9557 55.5311L42.7237 59.7065Z" fill="white" fill-opacity="0.1"/>
<rect x="1" y="1" width="60" height="60" rx="30" stroke="#B20600" stroke-width="2"/>
<path d="M36.3332 16.6665L25.6665 27.3332" stroke="#DC0000" stroke-width="1.33333" stroke-linecap="round"/>
<path d="M36.3332 27.3332L25.6665 16.6665" stroke="#DC0000" stroke-width="1.33333" stroke-linecap="round"/>
<path d="M12.5842 34.1611C14.0695 34.1484 15.2375 35.0054 15.5295 36.2686H17.5988V33.6533H19.008V39.8105H17.5988V37.4111H15.5422C15.2565 38.6997 14.0759 39.5693 12.5842 39.5693C10.8195 39.5693 9.55 38.4395 9.55 36.8525C9.55 35.291 10.8195 34.1484 12.5842 34.1611ZM12.5842 35.3418C11.5939 35.3418 10.8957 35.9258 10.8957 36.8525C10.8957 37.7666 11.5939 38.376 12.5842 38.376C13.549 38.376 14.2346 37.7666 14.2473 36.8525C14.2346 35.9258 13.549 35.3418 12.5842 35.3418ZM12.8381 40.3438V41.5625H17.5988V40.3438H19.008V44.9902H11.4416V40.3438H12.8381ZM12.8381 43.8477H17.5988V42.6543H12.8381V43.8477ZM30.7816 40.1533V41.2959H26.2113V45.1172H24.8148V41.2959H20.2953V40.1533H30.7816ZM29.4994 34.2373V38.8076H21.5775V34.2373H29.4994ZM22.9613 35.3672V37.7031H28.0902V35.3672H22.9613ZM33.9732 33.8311V34.7324H38.9244V33.8311H40.3209V37.6523H32.5768V33.8311H33.9732ZM33.9732 36.5986H38.9244V35.7607H33.9732V36.5986ZM41.6793 38.3633V39.5186H37.1344V40.3691H40.3717V43.1494H33.8463V43.9492H40.6891V45.0283H32.4625V42.1592H38.9879V41.4102H32.4498V40.3691H35.7252V39.5186H31.2184V38.3633H41.6793ZM46.2547 36.0146C46.2547 37.2588 47.1814 38.4775 48.9842 38.9727L48.3367 40.0645C47.0164 39.709 46.077 38.9346 45.5691 37.9443C45.0613 39.0361 44.1028 39.8804 42.7381 40.2676L42.0652 39.1758C43.8807 38.668 44.8455 37.3857 44.8455 36.0146V35.9893H42.4461V34.8721H44.8455V33.6025H46.2674V34.8721H48.6541V35.9893H46.2547V36.0146ZM51.1805 33.6533V36.4209H52.7801V37.5889H51.1805V40.4072H49.7713V33.6533H51.1805ZM51.1805 40.8896V44.9902H43.7664V40.8896H51.1805ZM45.1629 42.0068V43.8477H49.784V42.0068H45.1629Z" fill="white"/>
</svg>
